<?xml version="1.0" ?>
<svg xmlns="http://www.w3.org/2000/svg" xmlns:xlink="http://www.w3.org/1999/xlink" style="display:none">
	<style type="text/css">
		.i {display:none;}
		.i:target {display:block;}
	</style>
	<symbol class="i" id="reload" width="100%" height="100%" viewBox="0 0 16 16">
		<path class="b" d="M15.8 0.9c-0.1-0.1-0.3-0.2-0.5-0.2S15 0.7 14.9 0.9l-1.4 1.3C12.8 1.5 11.9 1 11 0.6C10 0.2 9 0 8 0 C6.1 0 4.4 0.6 3 1.7C1.6 2.9 0.6 4.4 0.2 6.3v0.1c0 0.1 0 0.2 0.1 0.2s0.1 0.1 0.2 0.1h2.1c0.2 0 0.3-0.1 0.3-0.2 c0.3-0.7 0.5-1.1 0.6-1.2c0.5-0.8 1.1-1.4 1.9-1.9C6.2 2.9 7.1 2.7 8 2.7c1.4 0 2.6 0.5 3.6 1.4l-1.4 1.4C10.1 5.7 10 5.8 10 6 s0.1 0.3 0.2 0.5c0.1 0.1 0.3 0.2 0.5 0.2h4.7c0.2 0 0.3-0.1 0.5-0.2C15.9 6.3 16 6.2 16 6V1.3C16 1.2 15.9 1 15.8 0.9z"/>
		<path class="b" d="M15.4 9.3h-2c-0.2 0-0.3 0.1-0.3 0.2c-0.3 0.7-0.5 1.1-0.6 1.2c-0.5 0.8-1.1 1.4-1.9 1.9 c-0.8 0.5-1.7 0.7-2.6 0.7c-0.7 0-1.3-0.1-1.9-0.4c-0.6-0.3-1.2-0.6-1.7-1.1l1.4-1.4C5.9 10.3 6 10.2 6 10c0-0.2-0.1-0.3-0.2-0.5 C5.7 9.4 5.5 9.3 5.3 9.3H0.7c-0.2 0-0.3 0.1-0.5 0.2C0.1 9.7 0 9.8 0 10v4.7c0 0.2 0.1 0.3 0.2 0.5c0.1 0.1 0.3 0.2 0.5 0.2 s0.3-0.1 0.5-0.2l1.3-1.3C3.2 14.5 4.1 15 5 15.4C6 15.8 6.9 16 8 16c1.9 0 3.6-0.6 5-1.7c1.4-1.2 2.3-2.7 2.8-4.5c0 0 0 0 0-0.1 c0-0.1 0-0.2-0.1-0.2C15.6 9.4 15.5 9.3 15.4 9.3z"/>
	</symbol>
	<symbol class="i" id="edit" width="100%" height="100%" viewBox="0 0 16 16">
		<path class="b" d="M2.5 9.5l4 4l6.1-6.1c-0.2-0.9-0.7-1.8-1.4-2.6c-0.7-0.7-1.6-1.2-2.6-1.4L2.5 9.5z"/>
		<path class="b" d="M10.8 1.3L10.1 2c0.9 0.3 1.8 0.8 2.5 1.5c0.7 0.7 1.2 1.6 1.5 2.5l0.7-0.7c0.6-0.6 0.8-1.3 0.8-2 c0-0.7-0.3-1.5-0.8-2c-0.6-0.6-1.3-0.8-2-0.8C12 0.5 11.3 0.8 10.8 1.3z"/>
		<path class="b" d="M0.6 14.9L1 13.3l0.6-2.4l3.5 3.5l-2.4 0.6l-1.6 0.4c-0.2 0-0.3 0-0.5-0.1c-0.1-0.1-0.1-0.2-0.1-0.3 C0.6 15 0.6 14.9 0.6 14.9z"/>
	</symbol>
	<symbol class="i" id="delete" width="100%" height="100%" viewBox="0 0 16 16">
		<path class="b" d="M15.6 2.8c-0.1-0.1-0.1-0.1-0.2-0.1H12l-0.8-1.7c-0.1-0.3-0.3-0.5-0.6-0.7C10.4 0.1 10.1 0 9.8 0H6.4 C6.1 0 5.8 0.1 5.5 0.3C5.2 0.5 5.1 0.7 4.9 0.9L4.2 2.7H0.9c-0.1 0-0.2 0-0.2 0.1C0.6 2.8 0.5 2.9 0.5 3v0.7c0 0.1 0 0.2 0.1 0.2 C0.7 4 0.8 4 0.9 4h1v9.9c0 0.6 0.2 1.1 0.5 1.5C2.7 15.8 3.2 16 3.6 16h8.9c0.5 0 0.9-0.2 1.2-0.6c0.3-0.4 0.5-0.9 0.5-1.5V4h1 c0.1 0 0.2 0 0.2-0.1c0.1-0.1 0.1-0.1 0.1-0.2V3C15.7 2.9 15.6 2.8 15.6 2.8z M6.2 1.4c0.1-0.1 0.1-0.1 0.2-0.1h3.4 c0.1 0 0.1 0.1 0.2 0.1l0.5 1.2H5.7L6.2 1.4z M12.9 13.9c0 0.2 0 0.3-0.1 0.4c-0.1 0.1-0.1 0.2-0.2 0.3c-0.1 0.1-0.1 0.1-0.1 0.1 H3.6c0 0-0.1 0-0.1-0.1c-0.1-0.1-0.1-0.2-0.2-0.3c-0.1-0.1-0.1-0.3-0.1-0.4V4h9.6V13.9z"/>
		<path class="b" d="M5 12.7h0.7c0.1 0 0.2 0 0.2-0.1C6 12.5 6 12.4 6 12.3v-6c0-0.1 0-0.2-0.1-0.2C5.9 6 5.8 6 5.7 6H5 C4.9 6 4.8 6 4.8 6.1C4.7 6.2 4.7 6.2 4.7 6.3v6c0 0.1 0 0.2 0.1 0.2C4.8 12.6 4.9 12.7 5 12.7z"/>
		<path class="b" d="M7.7 12.7h0.7c0.1 0 0.2 0 0.2-0.1c0.1-0.1 0.1-0.1 0.1-0.2v-6c0-0.1 0-0.2-0.1-0.2C8.6 6 8.5 6 8.4 6H7.7 C7.6 6 7.6 6 7.5 6.1C7.4 6.2 7.4 6.2 7.4 6.3v6c0 0.1 0 0.2 0.1 0.2C7.6 12.6 7.6 12.7 7.7 12.7z"/>
		<path class="b" d="M10.5 12.7h0.7c0.1 0 0.2 0 0.2-0.1c0.1-0.1 0.1-0.1 0.1-0.2v-6c0-0.1 0-0.2-0.1-0.2C11.4 6 11.3 6 11.2 6 h-0.7c-0.1 0-0.2 0-0.2 0.1c-0.1 0.1-0.1 0.1-0.1 0.2v6c0 0.1 0 0.2 0.1 0.2C10.3 12.6 10.4 12.7 10.5 12.7z"/>
	</symbol>
	<symbol class="i" id="download" width="100%" height="100%" viewBox="0 0 16 16">
		<path class="b" d="M7.4 12.8c0.2 0.2 0.5 0.3 0.7 0.3c0.3 0 0.5-0.1 0.7-0.3l5.1-5.1c0.4-0.4 0.4-1 0-1.4c-0.4-0.4-1-0.4-1.4 0 L9.1 9.6V1c0-0.6-0.5-1-1-1c-0.6 0-1 0.5-1 1v8.6L3.7 6.2c-0.4-0.4-1-0.4-1.4 0c-0.4 0.4-0.4 1 0 1.4L7.4 12.8z M13.5 13.9H2.7 c-0.6 0-1 0.5-1 1c0 0.6 0.5 1 1 1h10.7c0.6 0 1-0.5 1-1C14.5 14.4 14 13.9 13.5 13.9z"/>
	</symbol>
	<symbol class="i" id="search" width="100%" height="100%" viewBox="0 0 16 16">
		<path class="t" d="M1.1 14.2L1.1 14.2c0.1-0.2 0.2-0.3 0.3-0.4l3.1-3.8C4.6 10 4.7 9.9 4.8 9.8C3 7.7 2.9 4.5 4.7 2.3 c2-2.5 5.8-2.9 8.3-0.9c2.5 2 2.9 5.8 0.9 8.3c-1.8 2.3-5 2.8-7.5 1.5c0 0.1-0.1 0.3-0.2 0.4l-2.6 3.4C3.2 15.5 2.7 16 2 15.9 C1.3 15.7 0.7 14.8 1.1 14.2L1.1 14.2z M6.6 9.3c1.8 1.5 4.5 1.2 6-0.6c1.5-1.8 1.2-4.5-0.6-6c-1.8-1.5-4.5-1.2-6 0.6 C4.5 5.2 4.8 7.9 6.6 9.3z"/>
	</symbol>
	<symbol class="i" id="close" width="100%" height="100%" viewBox="0 0 16 16">
		<path class="t" d="M14.1 3.3L12.8 2L8.1 6.7L3.4 2L2.1 3.3L6.8 8l-4.7 4.7L3.4 14l4.7-4.7l4.7 4.7l1.3-1.3L9.4 8L14.1 3.3z"/>
	</symbol>
	<symbol class="i" id="pointDown" width="100%" height="100%" viewBox="0 0 16 16">
		<path class="t" d="M15.7 5.1l-7.3 7.3c-0.1 0.1-0.3 0.2-0.4 0.2c-0.2 0-0.3-0.1-0.4-0.2L0.3 5.1C0.1 5 0.1 4.8 0.1 4.6c0-0.2 0.1-0.3 0.2-0.4l1.6-1.6C2 2.4 2.2 2.4 2.3 2.4c0.2 0 0.3 0.1 0.4 0.2L8 7.8l5.2-5.2c0.1-0.1 0.3-0.2 0.4-0.2c0.2 0 0.3 0.1 0.4 0.2l1.6 1.6c0.1 0.1 0.2 0.3 0.2 0.4C15.9 4.8 15.9 5 15.7 5.1z"/>
	</symbol>
	<symbol class="i" id="pointUp" width="100%" height="100%" viewBox="0 0 16 16">
		<path class="t" d="M0.3 9.5l7.3-7.3C7.7 2.1 7.8 2.1 8 2.1c0.2 0 0.3 0.1 0.4 0.2l7.3 7.3c0.1 0.1 0.2 0.3 0.2 0.4c0 0.2-0.1 0.3-0.2 0.4l-1.6 1.6c-0.1 0.1-0.3 0.2-0.4 0.2c-0.2 0-0.3-0.1-0.4-0.2L8 6.8l-5.2 5.2c-0.1 0.1-0.3 0.2-0.4 0.2c-0.2 0-0.3-0.1-0.4-0.2l-1.6-1.6c-0.1-0.1-0.2-0.3-0.2-0.4C0.1 9.8 0.1 9.7 0.3 9.5z"/>
	</symbol>
	<symbol class="i" id="pointRight" width="100%" height="100%" viewBox="0 0 16 16">
		<path class="t" d="M5.5 15.9c-0.2 0-0.3-0.1-0.4-0.2L3.4 14c-0.1-0.1-0.2-0.3-0.2-0.4c0-0.2 0.1-0.3 0.2-0.4l5.2-5.2L3.4 2.7C3.3 2.6 3.2 2.4 3.2 2.3c0-0.2 0.1-0.3 0.2-0.4L5 0.2C5.2 0.1 5.3 0 5.5 0c0.2 0 0.3 0.1 0.4 0.2l7.3 7.3c0.1 0.1 0.2 0.3 0.2 0.4c0 0.2-0.1 0.3-0.2 0.4l-7.3 7.3C5.8 15.8 5.7 15.9 5.5 15.9z"/>
	</symbol>
	<symbol class="i" id="pointLeft" width="100%" height="100%" viewBox="0 0 16 16">
		<path class="t" d="M10.1 15.7L2.8 8.4C2.6 8.2 2.6 8.1 2.6 7.9c0-0.2 0.1-0.3 0.2-0.4l7.3-7.3C10.2 0.1 10.3 0 10.5 0c0.2 0 0.3 0.1 0.4 0.2l1.6 1.6c0.1 0.1 0.2 0.3 0.2 0.4c0 0.2-0.1 0.3-0.2 0.4L7.3 7.9l5.2 5.2c0.1 0.1 0.2 0.3 0.2 0.4c0 0.2-0.1 0.3-0.2 0.4l-1.6 1.6c-0.1 0.1-0.3 0.2-0.4 0.2C10.3 15.9 10.2 15.8 10.1 15.7z"/>
	</symbol>
	<symbol class="i" id="facebook" width="100%" height="100%" viewBox="0 0 16 16">
		<path class="w" d="M11.2 5.9H9.1V4.4c0-0.5 0.5-0.6 0.7-0.6c0.2 0 1.4 0 1.4 0V1.7l-1.5 0C7.5 1.7 7 3.3 7 4.3 v1.7H5.5v2.1H7c0 2.7 0 5.8 0 5.8h2.1c0 0 0-3 0-5.8h1.8L11.2 5.9z"/>
	</symbol>
	<symbol class="i" id="twitter" width="100%" height="100%" viewBox="0 0 16 16">
		<path class="w" d="M14.8 4.5c-0.2 0.1-0.8 0.4-1.4 0.4c0.4-0.2 0.9-0.9 1.1-1.5C14.1 3.7 13.2 4 12.8 4 c0 0 0 0 0 0c-0.5-0.5-1.1-0.9-1.8-0.9c-1.4 0-2.5 1.2-2.5 2.8c0 0.2 0 0.4 0.1 0.6h0C6.6 6.5 4.4 5.5 3.1 3.7 C2.3 5.1 3 6.8 3.9 7.3C3.6 7.4 3 7.3 2.8 7c0 1 0.4 2.2 2 2.7C4.4 9.9 3.9 9.8 3.7 9.8c0.1 0.8 1.1 1.9 2.3 1.9 c-0.4 0.5-1.8 1.4-3.5 1.1C3.6 13.6 5 14 6.4 14c4.1 0 7.3-3.6 7.1-8c0 0 0 0 0 0c0 0 0 0 0 0c0 0 0 0 0 0 C13.9 5.6 14.4 5.1 14.8 4.5z"/>
	</symbol>
	<symbol class="i" id="google" width="100%" height="100%" viewBox="0 0 16 16">
		<path class="st0" d="M0.1 7.9c0-2.6 2.4-4.9 5-4.8C6.4 3 7.6 3.6 8.5 4.3C8.1 4.8 7.7 5.2 7.2 5.7c-1.1-0.8-2.8-1-3.9-0.1
		c-1.6 1.1-1.7 3.8-0.1 5C4.7 12 7.6 11.3 8 9.1c-1 0-1.9 0-2.9 0c0-0.6 0-1.1 0-1.7c1.6 0 3.2 0 4.8 0c0.1 1.3-0.1 2.8-0.9 3.9
		c-1.2 1.8-3.8 2.3-5.7 1.5C1.4 12.1 0 10 0.1 7.9"/>
		<path class="st0" d="M13.1 6h1.4c0 0.5 0 1 0 1.4c0.5 0 1 0 1.4 0v1.4c-0.5 0-1 0-1.4 0c0 0.5 0 1 0 1.4h-1.4c0-0.5 0-1 0-1.4
			c-0.5 0-1 0-1.4 0V7.4c0.5 0 1 0 1.4 0C13.1 6.9 13.1 6.4 13.1 6"/>
	</symbol>
	<symbol class="i" id="reddit" width="100%" height="100%" viewBox="0 0 16 16">
		<path class="w" d="M8.1 14.3c-3.7 0-6.8-2.1-6.8-4.7c0-0.3 0-0.5 0.1-0.8c0.2-1 0.9-1.8 1.9-2.5C4.6 5.4 6.3 5 8.1 5 C10 5 11.7 5.4 13 6.4l0.1 0.1l-0.6 0.9l-0.1-0.1c-1.1-0.8-2.6-1.2-4.2-1.2C6.6 6.1 5 6.5 4 7.2C3.2 7.8 2.7 8.4 2.5 9.1 c0 0.2-0.1 0.3-0.1 0.5c0 2 2.5 3.6 5.7 3.6c3.1 0 5.7-1.6 5.7-3.6c0-0.2 0-0.3-0.1-0.5l0-0.1l1.1-0.2l0 0.1 c0.1 0.2 0.1 0.5 0.1 0.7C14.9 12.2 11.9 14.3 8.1 14.3z"/>
		<path class="w" d="M2.3 9.6L1.8 9.4c-0.6-0.3-1-0.9-1-1.6c0-1 0.8-1.8 1.8-1.8c0.5 0 1 0.2 1.4 0.6l0.3 0.4L3.9 7.1 c-0.8 0.6-1.3 1.2-1.5 2L2.3 9.6z"/>
		<path class="w" d="M14 9.6l-0.1-0.5c-0.2-0.7-0.7-1.4-1.5-2l-0.4-0.3l0.3-0.3c0.3-0.4 0.8-0.7 1.4-0.7c1 0 1.8 0.8 1.8 1.8 c0 0.7-0.4 1.4-1.1 1.7L14 9.6z"/>
		<path class="w" d="M7 8.8c0 0.6-0.5 1.1-1 1.1c-0.6 0-1-0.5-1-1.1c0-0.6 0.5-1.1 1-1.1C6.6 7.7 7 8.2 7 8.8z"/>
		<path class="w" d="M11.4 8.8c0 0.6-0.5 1.1-1 1.1c-0.6 0-1-0.5-1-1.1c0-0.6 0.5-1.1 1-1.1C10.9 7.7 11.4 8.2 11.4 8.8z"/>
		<path class="w" d="M13.1 4.5c-0.8 0-1.5-0.7-1.5-1.5c0-0.8 0.7-1.5 1.5-1.5s1.5 0.7 1.5 1.5C14.6 3.9 13.9 4.5 13.1 4.5z"/>
		<path class="w" d="M8.6 5.6L7.8 5.4l1.1-3.7l3.2 0.8L12 3.2L9.5 2.7L8.6 5.6z"/>
		<path class="w" d="M8.2 12.6c-0.8 0-1.7-0.3-2.4-0.8c-0.2-0.1-0.2-0.4-0.1-0.6c0.1-0.2 0.4-0.2 0.6-0.1c1.2 0.8 2.7 0.8 3.9 0 c0.2-0.1 0.4-0.1 0.6 0.1c0.1 0.2 0.1 0.4-0.1 0.6C9.9 12.4 9 12.6 8.2 12.6z"/>
	</symbol>
	<symbol class="i" id="linkedin" width="100%" height="100%" viewBox="0 0 16 16">
		<path class="w" d="M6.1 13.2h2V8.5c0-0.2 0.4-1.6 2-1.4l0 0c0.9 0.1 1.3 1.2 1.4 1.4v4.8l2 0V7.6c-0.1-0.8-0.5-2.5-2.7-2.5 c-1.7 0-2.6 1.3-2.7 1.4V5.1h-2V13.2z M2.8 13.2h2V5.1h-2V13.2z"/>
		<path class="w" d="M3.8 2.3c-0.6 0-1 0.5-1 1c0 0.6 0.5 1 1 1c0.6 0 1-0.5 1-1C4.8 2.8 4.3 2.3 3.8 2.3z"/>
	</symbol>
	<symbol class="i" id="email" width="100%" height="100%" viewBox="0 0 16 16">
		<path class="w" d="M3.4 4.7c0.7 0.7 2 1.8 2.7 2.5l0.2 0.2l0.1 0.1l0.8 0.7c0.1 0.1 0.3 0.2 0.5 0.3 C7.8 8.5 8 8.5 8.2 8.5c0.2 0 0.4 0 0.6-0.1c0.1-0.1 0.3-0.1 0.4-0.2l0.4-0.4l0.4-0.4v0l0.2-0.2c0.7-0.7 2-1.8 2.7-2.5l1.1-1 c0 0 0 0 0 0c-0.2-0.1-0.3-0.1-0.5-0.1H2.7c-0.2 0-0.3 0-0.5 0.1c0 0 0 0 0 0L3.4 4.7z M5.4 8.2L5.5 8L5.4 7.9 c-0.7-0.7-2-1.8-2.7-2.5l-1.1-1c-0.1 0-0.1-0.1-0.1-0.1C1.3 4.5 1.2 4.8 1.2 5v5.8c0 0.3 0.1 0.6 0.3 0.9c0 0 0 0 0.1-0.1l1.1-1 C3.4 9.9 4.6 8.8 5.4 8.2z M10.3 8.9l-0.2-0.2l0 0L9.9 8.9C9.8 9 9.8 9 9.7 9.1c-0.3 0.2-0.6 0.4-1 0.4c-0.2 0-0.4 0.1-0.5 0.1 c-0.3 0-0.7-0.1-1-0.2C6.9 9.3 6.7 9.1 6.5 8.9L6.3 8.7L6.1 8.9c-0.7 0.7-2 1.8-2.7 2.5l-1 0.9c0.1 0 0.2 0 0.3 0h10.9 c0.1 0 0.2 0 0.3 0l-1-0.9C12.2 10.7 11 9.6 10.3 8.9z M14.9 4.3c0 0-0.1 0.1-0.1 0.1l-1.1 1c-0.7 0.7-2 1.8-2.7 2.5L10.8 8L11 8.2 c0.7 0.7 2 1.8 2.7 2.5l1.1 1c0 0 0 0 0.1 0.1c0.2-0.2 0.3-0.6 0.3-0.9V5C15.1 4.8 15.1 4.5 14.9 4.3z"/>
	</symbol>
	<symbol class="i" id="arrowLeft" width="100%" height="100%" viewBox="0 0 16 16">
		<path class="w" d="M13.7 9.3c-0.2 0.2-0.4 0.3-0.7 0.3H7.3l2.4 2.3c0.2 0.2 0.3 0.4 0.3 0.7c0 0.3-0.1 0.5-0.3 0.7l-0.6 0.6 c-0.2 0.2-0.5 0.3-0.7 0.3c-0.3 0-0.5-0.1-0.7-0.3l-5.3-5C2.1 8.7 2 8.4 2 8.2c0-0.3 0.1-0.5 0.3-0.7l5.3-5 c0.2-0.2 0.5-0.3 0.7-0.3c0.3 0 0.5 0.1 0.7 0.3L9.7 3C9.9 3.2 10 3.4 10 3.7C10 4 9.9 4.2 9.7 4.4L7.3 6.7H13 c0.3 0 0.5 0.1 0.7 0.3C13.9 7.2 14 7.4 14 7.7v1C14 8.9 13.9 9.2 13.7 9.3z"/>
	</symbol>
	<symbol class="i" id="arrowRight" width="100%" height="100%" viewBox="0 0 16 16">
		<path class="w" d="M2 8.6v-1C2 7.4 2.1 7.2 2.3 7C2.4 6.8 2.7 6.7 3 6.7h5.7L6.3 4.4C6.1 4.2 6 4 6 3.7C6 3.4 6.1 3.2 6.3 3 l0.6-0.6c0.2-0.2 0.4-0.3 0.7-0.3c0.3 0 0.5 0.1 0.7 0.3l5.3 5C13.9 7.7 14 7.9 14 8.2c0 0.3-0.1 0.5-0.3 0.7l-5.3 5 c-0.2 0.2-0.5 0.3-0.7 0.3c-0.3 0-0.5-0.1-0.7-0.3l-0.6-0.6C6.1 13.1 6 12.9 6 12.6c0-0.3 0.1-0.5 0.3-0.7l2.4-2.3H3 c-0.3 0-0.5-0.1-0.7-0.3C2.1 9.2 2 8.9 2 8.6z"/>
	</symbol>
	<symbol class="i" id="android" width="100%" height="100%" viewBox="0 0 16 16">
		<path class="b" d="M5 2.6C5.2 2.4 5.5 2.2 5.8 2c0.1 0 0.1-0.1 0-0.2C5.6 1.5 5.4 1.1 5.2 0.8c-0.1-0.1-0.1-0.2 0-0.3 c0.1-0.1 0.2-0.1 0.3 0c0 0 0.1 0.1 0.1 0.1C5.8 1 6 1.3 6.2 1.7c0 0.1 0.1 0.1 0.2 0.1c1.1-0.4 2.2-0.4 3.3 0c0.1 0 0.1 0 0.2-0.1 C10 1.3 10.2 1 10.4 0.6c0.1-0.1 0.2-0.2 0.3-0.1c0.1 0 0.2 0.2 0.1 0.3c-0.2 0.3-0.4 0.7-0.6 1C10.1 1.9 10.2 2 10.3 2 c0.9 0.6 1.6 1.4 1.9 2.5c0.1 0.3 0.1 0.5 0.1 0.8c0 0.1 0 0.1-0.1 0.1c-1.1 0-2.1 0-3.2 0H8c-1.4 0-2.7 0-4.1 0 c-0.1 0-0.1 0-0.1-0.1C3.8 4.2 4.2 3.3 5 2.6z M3.5 8.5c0 0.7 0 1.3 0 2c0 0.6-0.5 1-1 1c-0.6 0-1-0.5-1-1c0-1.3 0-2.7 0-4 c0-0.5 0.4-1 1-1c0.5 0 0.9 0.3 1 0.8c0 0.1 0 0.1 0 0.2V8.5z M12.2 11.8c0 0.6-0.4 1-1 1c-0.2 0-0.3 0-0.5 0c-0.1 0-0.1 0-0.1 0.1 c0 0.7 0 1.3 0 2c0 0.5-0.4 1-1 1c-0.6 0-1-0.5-1-1.1c0-0.6 0-1.3 0-1.9c0-0.1 0-0.1-0.1-0.1c-0.3 0-0.6 0-0.8 0 c-0.1 0-0.1 0-0.1 0.1c0 0.6 0 1.3 0 1.9c0 0.6-0.4 1-0.9 1.1C6 16 5.5 15.7 5.4 15.2c0-0.1 0-0.2 0-0.2c0-0.7 0-1.3 0-2 c0-0.1 0-0.1-0.1-0.1c-0.2 0-0.4 0-0.5 0c-0.5 0-1-0.5-1-1c0-2.1 0-4.1 0-6.2c0-0.1 0.1-0.1 0.1-0.1c1.3 0 2.6 0 3.9 0H9 c1 0 2.1 0 3.1 0c0.1 0 0.1 0 0.1 0.1C12.2 7.8 12.2 9.8 12.2 11.8z M14.6 10.4c0 0.6-0.4 1-1 1c-0.5 0-0.9-0.3-1-0.8 c0-0.1 0-0.1 0-0.2c0-0.7 0-1.3 0-2c0-0.7 0-1.3 0-2c0-0.6 0.5-1 1-1c0.6 0 1 0.5 1 1C14.6 7.8 14.6 9.1 14.6 10.4z"/>
	</symbol>
	<symbol class="i" id="ios" width="100%" height="100%" viewBox="0 0 16 16">
		<path class="b" d="M8.6 1.3C9 0.7 9.7 0.2 10.8 0c0 0.1 0 0.1 0 0.2c0 0.1 0 0.1 0 0.2c0 0.4-0.1 0.8-0.3 1.2 C10.4 2 10.1 2.4 9.7 2.8c-0.3 0.3-0.6 0.5-1 0.6C8.6 3.5 8.3 3.5 7.9 3.6C7.9 2.7 8.1 1.9 8.6 1.3z M13.1 13.8 c-0.8 1.2-1.5 1.7-2.3 1.7c-0.3 0-0.7-0.1-1.2-0.3C9 15 8.6 15 8.2 15c-0.4 0-0.8 0.1-1.3 0.3c-0.5 0.2-0.9 0.3-1.2 0.3 c-0.9 0-1.8-0.8-2.6-2.3c-0.9-1.5-1.3-3-1.3-4.5c0-1.4 0.3-2.5 1-3.3c0.7-0.9 1.5-1.3 2.5-1.3c0.4 0 0.9 0.1 1.6 0.3 c0.6 0.2 1 0.3 1.2 0.3c0.3 0 0.7-0.1 1.3-0.3c0.6-0.2 1.1-0.3 1.5-0.3c0.7 0 1.3 0.2 1.9 0.6c0.3 0.2 0.6 0.5 0.9 0.9 c-0.5 0.4-0.8 0.7-1 1c-0.4 0.6-0.6 1.2-0.6 1.8c0 0.7 0.2 1.4 0.6 2c0.4 0.6 0.9 1 1.4 1.1C13.9 12.3 13.6 13 13.1 13.8z"/>
	</symbol>
	<symbol class="i" id="windows" width="100%" height="100%" viewBox="0 0 16 16">
		<path class="b" d="M6.6 14.5l-5.9-0.8V8.7h5.9V14.5z M6.6 7.7H0.7V2.8L6.6 2V7.7z M15.3 15.6l-7.7-1.1V8.7h7.7V15.6z M15.3 7.7 H7.6V1.9l7.7-1.1V7.7z"/>
	</symbol>
	<symbol class="i" id="play" width="100%" height="100%" viewBox="0 0 16 16">
		<path class="w" d="M1.9 14.7c0 0.7 0.6 1.2 1.2 1.2c0.3 0 0.6-0.1 0.8-0.3h0L13.5 9c0.3-0.2 0.6-0.6 0.6-1c0-0.4-0.2-0.8-0.6-1 L3.9 0.3l0 0C3.7 0.1 3.4 0 3.2 0C2.5 0 1.9 0.6 1.9 1.3V14.7z"/>
	</symbol>
	<symbol class="i" id="messages" width="100%" height="100%" viewBox="0 0 16 16">
		<path class="b" d="M13.8 3H2.5C2.1 3 1.8 3.3 1.8 3.7v6.5c0 0 0 0 0 0.1l0 0l0 3.8c0 0.3 0.2 0.5 0.5 0.5c0.1 0 0.2 0 0.3-0.1 L5.9 11h7.9c0.4 0 0.8-0.3 0.8-0.8V3.7C14.5 3.3 14.2 3 13.8 3z"/>
	</symbol>
	<symbol class="i" id="minutes" width="100%" height="100%" viewBox="0 0 16 16">
		<path class="b" d="M8 1.5C4.4 1.5 1.5 4.4 1.5 8c0 3.6 2.9 6.5 6.5 6.5c3.6 0 6.5-2.9 6.5-6.5l0-0.1c0-0.3-0.2-0.6-0.6-0.6H9.2 c-0.3 0-0.6-0.2-0.6-0.6V2.1c0-0.3-0.2-0.6-0.6-0.6L8 1.5z"/>
	</symbol>
	<symbol class="i" id="megabytes" width="100%" height="100%" viewBox="0 0 16 16">
		<path class="b" d="M12.7 6.8c-0.4 0-0.7-0.3-0.7-0.7V5c0-0.4 0.3-0.7 0.7-0.7h2.6C15.7 4.3 16 4.6 16 5v1.2 c0 0.4-0.3 0.7-0.7 0.7H12.7z"/>
		<path class="b" d="M8.3 3.7c-0.4 0-0.7-0.3-0.7-0.7V1.9c0-0.4 0.3-0.7 0.7-0.7h2.6c0.4 0 0.7 0.3 0.7 0.7v1.2 c0 0.4-0.3 0.7-0.7 0.7H8.3z"/>
		<path class="b" d="M12.2 9.5H8.4V6.7c0-0.4-0.3-0.7-0.7-0.7H4V4c0-0.4-0.3-0.7-0.7-0.7H0.7C0.3 3.3 0 3.6 0 4v10.1 c0 0.4 0.3 0.7 0.7 0.7h1.1h1.5h3h1.5h4.5c0.4 0 0.7-0.3 0.7-0.7v-4C12.9 9.8 12.6 9.5 12.2 9.5z"/>
	</symbol>
	<symbol class="i" id="devices" width="100%" height="100%" viewBox="0 0 16 16">
		<path class="st5" d="M11.1 0.2h-6c-0.8 0-1.5 0.7-1.5 1.5v12.6c0 0.8 0.7 1.5 1.5 1.5h6c0.8 0 1.5-0.7 1.5-1.5V1.7 C12.6 0.9 11.9 0.2 11.1 0.2z M8.1 14.3c-0.5 0-1-0.4-1-1c0-0.5 0.4-1 1-1s1 0.4 1 1C9.1 13.9 8.7 14.3 8.1 14.3z M9.1 2.7h-2 c-0.3 0-0.5-0.2-0.5-0.5s0.2-0.5 0.5-0.5h2c0.3 0 0.5 0.2 0.5 0.5S9.4 2.7 9.1 2.7z"/>
	</symbol>
	<symbol class="i" id="calendar" width="100%" height="100%" viewBox="0 0 16 16">
		<path class="g" d="M14 3.5c-0.2-0.2-0.4-0.3-0.6-0.3h-0.9V2.6c0-0.3-0.1-0.6-0.3-0.8c-0.2-0.2-0.5-0.3-0.8-0.3h-0.5 c-0.3 0-0.6 0.1-0.8 0.3C9.8 2 9.7 2.3 9.7 2.6v0.7H7V2.6C7 2.3 6.9 2 6.6 1.8C6.4 1.6 6.2 1.4 5.8 1.4H5.4c-0.3 0-0.6 0.1-0.8 0.3 S4.3 2.3 4.3 2.6v0.7H3.4c-0.2 0-0.5 0.1-0.6 0.3C2.5 3.7 2.5 3.9 2.5 4.2v9.1c0 0.2 0.1 0.5 0.3 0.6c0.2 0.2 0.4 0.3 0.6 0.3h10 c0.2 0 0.5-0.1 0.6-0.3c0.2-0.2 0.3-0.4 0.3-0.6V4.2C14.2 3.9 14.1 3.7 14 3.5z M5.4 13.2h-2v-2h2V13.2z M5.4 10.7h-2V8.5h2V10.7z  M5.4 8h-2V6h2V8z M5.2 4.8c0 0-0.1-0.1-0.1-0.2v-2c0-0.1 0-0.1 0.1-0.2c0 0 0.1-0.1 0.2-0.1h0.5c0.1 0 0.1 0 0.2 0.1 c0 0 0.1 0.1 0.1 0.2v2c0 0.1 0 0.1-0.1 0.2c0 0-0.1 0.1-0.2 0.1H5.4C5.3 4.8 5.3 4.8 5.2 4.8z M8.1 13.2H5.8v-2h2.3V13.2z  M8.1 10.7H5.8V8.5h2.3V10.7z M8.1 8H5.8V6h2.3V8z M10.8 13.2H8.6v-2h2.3V13.2z M10.8 10.7H8.6V8.5h2.3V10.7z M10.8 8H8.6V6h2.3V8z  M10.7 4.8c0 0-0.1-0.1-0.1-0.2v-2c0-0.1 0-0.1 0.1-0.2c0 0 0.1-0.1 0.2-0.1h0.5c0.1 0 0.1 0 0.2 0.1c0 0 0.1 0.1 0.1 0.2v2 c0 0.1 0 0.1-0.1 0.2c0 0-0.1 0.1-0.2 0.1h-0.5C10.8 4.8 10.7 4.8 10.7 4.8z M13.3 13.2h-2v-2h2V13.2z M13.3 10.7h-2V8.5h2V10.7z  M13.3 8h-2V6h2V8z"/>
	</symbol>
	<symbol class="i" id="bell" width="100%" height="100%" viewBox="0 0 16 16">
		<path class="g" d="M12.4 8.6c-0.5-1.1-0.7-2.3-0.7-3.6c0-0.8-0.2-1.4-0.7-1.9c-0.5-0.5-1.1-0.7-1.9-0.8c0-0.1 0.1-0.2 0.1-0.3 c0-0.2-0.1-0.4-0.2-0.5C8.8 1.4 8.7 1.3 8.5 1.3C8.3 1.3 8.1 1.4 8 1.5C7.8 1.6 7.8 1.8 7.8 2c0 0.1 0 0.2 0.1 0.3 C7 2.4 6.4 2.6 5.9 3.1C5.5 3.6 5.2 4.2 5.2 5c0 1.3-0.2 2.5-0.7 3.6c-0.5 1.1-1.2 2.1-2.1 2.9c0 0.3 0.1 0.5 0.3 0.7 c0.2 0.2 0.4 0.3 0.7 0.3h3.2c0 0.5 0.2 0.9 0.5 1.3c0.4 0.4 0.8 0.5 1.3 0.5c0.5 0 0.9-0.2 1.3-0.5c0.4-0.4 0.5-0.8 0.5-1.3h3.2 c0.3 0 0.5-0.1 0.7-0.3c0.2-0.2 0.3-0.4 0.3-0.7C13.6 10.7 12.9 9.7 12.4 8.6z M8.5 13.7c-0.4 0-0.7-0.1-0.9-0.4 c-0.2-0.2-0.4-0.5-0.4-0.9c0-0.1 0-0.1 0.1-0.1c0.1 0 0.1 0 0.1 0.1c0 0.3 0.1 0.5 0.3 0.7c0.2 0.2 0.4 0.3 0.7 0.3 c0.1 0 0.1 0 0.1 0.1C8.6 13.6 8.5 13.7 8.5 13.7z"/>
	</symbol>
	<symbol class="i" id="chat" width="100%" height="100%" viewBox="0 0 16 16">
		<path class="g" d="M9.4 9.4c0.8-0.4 1.5-0.8 2-1.4c0.5-0.6 0.7-1.3 0.7-2s-0.2-1.4-0.7-2c-0.5-0.6-1.1-1.1-2-1.4 C8.6 2.3 7.7 2.1 6.7 2.1S4.8 2.3 4 2.6C3.2 3 2.5 3.5 2 4.1C1.5 4.7 1.3 5.3 1.3 6c0 0.6 0.2 1.2 0.5 1.7c0.4 0.5 0.9 1 1.5 1.4 C3.3 9.2 3.2 9.4 3.2 9.5C3.1 9.6 3.1 9.7 3 9.8C2.9 9.9 2.9 9.9 2.8 10c0 0.1-0.1 0.1-0.2 0.2c-0.1 0.1-0.2 0.2-0.2 0.2 c0 0 0 0 0 0c0 0 0 0 0 0c0 0 0 0 0 0c0 0 0 0 0 0l0 0c0 0 0 0 0 0c0 0 0 0 0 0.1c0 0 0 0 0 0c0 0.1 0 0.1 0.1 0.2 c0 0 0.1 0.1 0.2 0.1h0c0.3 0 0.5-0.1 0.7-0.1c0.8-0.2 1.5-0.5 2.1-1C5.8 9.9 6.3 10 6.7 10C7.7 10 8.6 9.8 9.4 9.4z"/>
		<path class="g" d="M14.5 9.7c0.4-0.5 0.5-1.1 0.5-1.7c0-0.6-0.2-1.2-0.6-1.8c-0.4-0.5-0.9-1-1.6-1.4C13 5.3 13.1 5.6 13.1 6 c0 0.7-0.2 1.3-0.5 2c-0.3 0.6-0.8 1.2-1.5 1.6c-0.6 0.4-1.3 0.8-2 1C8.3 10.8 7.5 11 6.7 11c-0.2 0-0.4 0-0.7 0c1 0.7 2.2 1 3.6 1 c0.4 0 0.9 0 1.4-0.1c0.6 0.5 1.3 0.8 2.1 1c0.2 0 0.4 0.1 0.7 0.1c0.1 0 0.1 0 0.2-0.1c0.1 0 0.1-0.1 0.1-0.2c0 0 0 0 0 0 c0 0 0 0 0-0.1c0 0 0 0 0 0l0 0c0 0 0 0 0 0c0 0 0 0 0 0c0 0 0 0 0 0c0 0 0 0 0 0c0 0-0.1-0.1-0.2-0.2c-0.1-0.1-0.2-0.2-0.2-0.2 c0-0.1-0.1-0.1-0.2-0.2s-0.1-0.2-0.2-0.3c-0.1-0.1-0.1-0.2-0.2-0.3C13.7 10.7 14.2 10.3 14.5 9.7z"/>
	</symbol>
	<symbol class="i" id="clock" width="100%" height="100%" viewBox="0 0 16 16">
		<path class="g" d="M14.4 4.2c-0.6-1.1-1.5-2-2.6-2.6c-1.1-0.6-2.3-1-3.6-1s-2.5 0.3-3.6 1c-1.1 0.6-2 1.5-2.6 2.6S1 6.5 1 7.8 c0 1.3 0.3 2.5 1 3.6c0.6 1.1 1.5 2 2.6 2.6c1.1 0.6 2.3 1 3.6 1c1.3 0 2.5-0.3 3.6-1c1.1-0.6 2-1.5 2.6-2.6c0.6-1.1 1-2.3 1-3.6 S15.1 5.3 14.4 4.2z M12.6 10.3c-0.5 0.8-1.1 1.4-1.9 1.9c-0.8 0.5-1.6 0.7-2.6 0.7s-1.8-0.2-2.6-0.7c-0.8-0.5-1.4-1.1-1.9-1.9 C3.3 9.6 3.1 8.7 3.1 7.8c0-0.9 0.2-1.8 0.7-2.6c0.5-0.8 1.1-1.4 1.9-1.9c0.8-0.5 1.6-0.7 2.6-0.7c0.9 0 1.8 0.2 2.6 0.7 c0.8 0.5 1.4 1.1 1.9 1.9c0.5 0.8 0.7 1.6 0.7 2.6C13.3 8.7 13.1 9.6 12.6 10.3z"/>
		<path class="g" d="M9.1 4.2H8.5c-0.1 0-0.2 0-0.2 0.1C8.2 4.3 8.2 4.4 8.2 4.5v3.3H6.1c-0.1 0-0.2 0-0.2 0.1 C5.8 7.9 5.8 8 5.8 8.1v0.6c0 0.1 0 0.2 0.1 0.2C5.9 9 6 9 6.1 9h3c0.1 0 0.2 0 0.2-0.1c0.1-0.1 0.1-0.1 0.1-0.2V4.5 c0-0.1 0-0.2-0.1-0.2C9.2 4.2 9.2 4.2 9.1 4.2z"/>
	</symbol>
	<symbol class="i" id="cup" width="100%" height="100%" viewBox="0 0 16 16">
		<path class="g" d="M1.7 13.1C2 13.5 2.5 13.7 3 13.7h9.8c0.5 0 1-0.2 1.4-0.6c0.4-0.4 0.6-0.8 0.6-1.4H1.1 C1.1 12.3 1.3 12.7 1.7 13.1z"/>
		<path class="g" d="M4.8 10.7h5.4c0.5 0 0.9-0.2 1.2-0.5c0.3-0.3 0.5-0.7 0.5-1.2V8.8h0.5c0.8 0 1.5-0.3 2.1-0.9 c0.6-0.6 0.9-1.3 0.9-2.1c0-0.8-0.3-1.5-0.9-2.1c-0.6-0.6-1.3-0.9-2.1-0.9H3.5c-0.1 0-0.2 0-0.3 0.1C3.1 3.2 3 3.3 3 3.4V9 c0 0.5 0.2 0.9 0.5 1.2C3.9 10.6 4.3 10.7 4.8 10.7z M11.8 4.4h0.5c0.4 0 0.8 0.1 1 0.4c0.3 0.3 0.4 0.6 0.4 1c0 0.4-0.1 0.8-0.4 1 c-0.3 0.3-0.6 0.4-1 0.4h-0.5V4.4z"/>
	</symbol>
	<symbol class="i" id="flag" width="100%" height="100%" viewBox="0 0 16 16">
		<path class="g" d="M3.1 2C2.9 1.8 2.7 1.7 2.4 1.7C2.1 1.7 1.9 1.8 1.7 2C1.5 2.2 1.4 2.5 1.4 2.7c0 0.4 0.2 0.7 0.5 0.9v10 c0 0.1 0 0.1 0.1 0.2c0 0 0.1 0.1 0.2 0.1h0.5c0.1 0 0.1 0 0.2-0.1c0 0 0.1-0.1 0.1-0.2v-10c0.3-0.2 0.5-0.5 0.5-0.9 C3.4 2.5 3.3 2.2 3.1 2z"/>
		<path class="g" d="M14.8 2.9c-0.1-0.1-0.2-0.1-0.4-0.1c-0.1 0-0.2 0.1-0.4 0.2c-0.2 0.1-0.4 0.2-0.7 0.4 c-0.2 0.1-0.5 0.3-0.9 0.4c-0.3 0.1-0.6 0.2-0.9 0.2c-0.3 0-0.5 0-0.7-0.1C10.2 3.4 9.6 3.1 9.1 3c-0.5-0.2-1-0.2-1.6-0.2 c-1 0-2.1 0.3-3.3 0.9C4 3.8 3.7 4 3.6 4C3.5 4.1 3.4 4.3 3.4 4.5v5.8c0 0.1 0 0.3 0.1 0.4c0.1 0.1 0.2 0.1 0.4 0.1 c0.1 0 0.2 0 0.3-0.1C5.6 10 6.8 9.6 7.8 9.6c0.4 0 0.8 0.1 1.1 0.2c0.4 0.1 0.7 0.2 0.9 0.4c0.2 0.1 0.5 0.3 0.9 0.4 c0.3 0.1 0.7 0.2 1 0.2c0.8 0 1.8-0.3 2.9-0.9c0.1-0.1 0.2-0.1 0.3-0.2C14.9 9.5 15 9.4 15 9.3v-6C15 3.1 14.9 3 14.8 2.9z"/>
	</symbol>
	<symbol class="i" id="gears" width="100%" height="100%" viewBox="0 0 16 16">
		<path class="g" d="M9.5 10.5c0-0.1 0-0.1-0.1-0.2C9.2 10 9 9.7 8.8 9.5C8.9 9.3 9 9.1 9 8.9l1.2-0.2c0 0 0.1 0 0.1-0.1 c0-0.1 0.1-0.1 0.1-0.2V7c0-0.1 0-0.1-0.1-0.2c0 0-0.1-0.1-0.1-0.1L9 6.5C9 6.4 8.9 6.1 8.8 5.9C8.9 5.8 9 5.6 9.1 5.4 C9.3 5.2 9.4 5.1 9.5 5c0-0.1 0.1-0.1 0.1-0.2c0-0.1-0.4-0.6-1.1-1.3c-0.1 0-0.1-0.1-0.2-0.1c-0.1 0-0.1 0-0.2 0.1L7.1 4.3 C6.9 4.1 6.7 4.1 6.5 4L6.3 2.8c0-0.1 0-0.1-0.1-0.1c0 0-0.1-0.1-0.2-0.1H4.6c-0.1 0-0.2 0.1-0.2 0.2C4.3 3 4.3 3.4 4.2 4 C4 4.1 3.8 4.2 3.6 4.3L2.7 3.6c-0.1 0-0.1-0.1-0.2-0.1C2.4 3.5 2.2 3.7 1.9 4C1.6 4.3 1.3 4.5 1.2 4.7c0 0-0.1 0.1-0.1 0.2 c0 0 0 0.1 0.1 0.2c0.3 0.4 0.5 0.7 0.7 0.9C1.8 6.1 1.7 6.3 1.7 6.5L0.5 6.7c0 0-0.1 0-0.1 0.1c0 0.1-0.1 0.1-0.1 0.2v1.5 c0 0.1 0 0.1 0.1 0.2c0 0 0.1 0.1 0.1 0.1l1.2 0.2C1.7 9 1.8 9.3 1.9 9.5C1.9 9.6 1.7 9.8 1.6 10c-0.2 0.2-0.3 0.3-0.3 0.4 c0 0.1-0.1 0.1-0.1 0.2c0 0.1 0.4 0.6 1.1 1.3c0.1 0 0.1 0.1 0.2 0.1c0.1 0 0.1 0 0.2-0.1l0.9-0.7c0.2 0.1 0.4 0.2 0.6 0.2l0.2 1.2 c0 0.1 0 0.1 0.1 0.1c0 0 0.1 0.1 0.2 0.1h1.5c0.1 0 0.2-0.1 0.2-0.2c0.1-0.2 0.1-0.7 0.2-1.2c0.2-0.1 0.4-0.1 0.6-0.2L8 11.8 c0.1 0 0.1 0.1 0.2 0.1c0.1 0 0.3-0.2 0.6-0.5c0.3-0.3 0.5-0.6 0.7-0.7C9.5 10.7 9.5 10.6 9.5 10.5z M6.8 9.1 C6.4 9.5 5.9 9.7 5.4 9.7c-0.6 0-1-0.2-1.4-0.6C3.5 8.7 3.3 8.3 3.3 7.7c0-0.6 0.2-1 0.6-1.4c0.4-0.4 0.9-0.6 1.4-0.6 c0.6 0 1 0.2 1.4 0.6c0.4 0.4 0.6 0.9 0.6 1.4C7.4 8.3 7.2 8.7 6.8 9.1z"/>
		<path class="g" d="M14.4 11c-0.1-0.2-0.1-0.3-0.2-0.4c0.3-0.6 0.4-1 0.4-1.1c0 0 0 0 0-0.1c-0.6-0.4-1-0.6-1-0.6l0 0 c-0.2 0.2-0.5 0.5-0.7 0.9c-0.1 0-0.2 0-0.2 0c-0.1 0-0.1 0-0.2 0c-0.1-0.1-0.2-0.3-0.4-0.5c-0.2-0.2-0.3-0.4-0.4-0.4 c0 0-0.1 0-0.2 0.1c-0.1 0.1-0.3 0.2-0.5 0.3c-0.2 0.1-0.3 0.1-0.3 0.2c0 0 0 0 0 0.1c0 0.1 0.1 0.5 0.4 1.1 c-0.1 0.1-0.2 0.3-0.2 0.4c-0.8 0.1-1.2 0.2-1.2 0.2v1.1c0 0.1 0.4 0.2 1.2 0.2c0.1 0.1 0.1 0.3 0.2 0.4c-0.3 0.6-0.4 1-0.4 1.1 c0 0 0 0 0 0.1c0.6 0.4 1 0.6 1 0.6c0 0 0.2-0.1 0.4-0.4c0.2-0.2 0.3-0.4 0.4-0.5c0.1 0 0.2 0 0.2 0c0.1 0 0.1 0 0.2 0 c0.1 0.1 0.2 0.3 0.4 0.5c0.2 0.2 0.3 0.4 0.4 0.4c0 0 0.3-0.2 1-0.6c0 0 0 0 0-0.1c0-0.1-0.1-0.5-0.4-1.1c0.1-0.1 0.2-0.3 0.2-0.4 c0.8-0.1 1.2-0.2 1.2-0.2v-1.1C15.5 11.1 15.1 11 14.4 11z M13.2 12.5c-0.2 0.2-0.4 0.3-0.7 0.3c-0.3 0-0.5-0.1-0.7-0.3 c-0.2-0.2-0.3-0.4-0.3-0.7c0-0.3 0.1-0.5 0.3-0.7c0.2-0.2 0.4-0.3 0.7-0.3c0.3 0 0.5 0.1 0.7 0.3c0.2 0.2 0.3 0.4 0.3 0.7 C13.5 12 13.4 12.3 13.2 12.5z"/>
		<path class="g" d="M14.4 2.8c-0.1-0.2-0.1-0.3-0.2-0.4c0.3-0.6 0.4-1 0.4-1.1c0 0 0 0 0-0.1c-0.6-0.4-1-0.6-1-0.6l0 0 c-0.2 0.2-0.5 0.5-0.7 0.9c-0.1 0-0.2 0-0.2 0c-0.1 0-0.1 0-0.2 0c-0.1-0.1-0.2-0.3-0.4-0.5c-0.2-0.2-0.3-0.4-0.4-0.4 c0 0-0.1 0-0.2 0.1c-0.1 0.1-0.3 0.2-0.5 0.3c-0.2 0.1-0.3 0.1-0.3 0.2c0 0 0 0 0 0.1c0 0.1 0.1 0.5 0.4 1.1 c-0.1 0.1-0.2 0.3-0.2 0.4C9.8 2.9 9.4 3 9.4 3.1v1.1c0 0.1 0.4 0.2 1.2 0.2c0.1 0.1 0.1 0.3 0.2 0.4c-0.3 0.6-0.4 1-0.4 1.1 c0 0 0 0 0 0.1c0.6 0.4 1 0.6 1 0.6c0 0 0.2-0.1 0.4-0.4c0.2-0.2 0.3-0.4 0.4-0.5c0.1 0 0.2 0 0.2 0c0.1 0 0.1 0 0.2 0 c0.1 0.1 0.2 0.3 0.4 0.5c0.2 0.2 0.3 0.4 0.4 0.4c0 0 0.3-0.2 1-0.6c0 0 0 0 0-0.1c0-0.1-0.1-0.5-0.4-1.1c0.1-0.1 0.2-0.3 0.2-0.4 c0.8-0.1 1.2-0.2 1.2-0.2V3.1C15.5 3 15.1 2.9 14.4 2.8z M13.2 4.3c-0.2 0.2-0.4 0.3-0.7 0.3c-0.3 0-0.5-0.1-0.7-0.3 c-0.2-0.2-0.3-0.4-0.3-0.7c0-0.3 0.1-0.5 0.3-0.7c0.2-0.2 0.4-0.3 0.7-0.3c0.3 0 0.5 0.1 0.7 0.3c0.2 0.2 0.3 0.4 0.3 0.7 C13.5 3.9 13.4 4.1 13.2 4.3z"/>
	</symbol>
	<symbol class="i" id="instagram" width="100%" height="100%" viewBox="0 0 16 16">
		<path d="M8 1.5c2.1 0 2.4 0 3.2 0c0.8 0 1.2 0.2 1.5 0.3C13 2 13.3 2.1 13.5 2.4s0.4 0.5 0.6 0.9 c0.1 0.3 0.2 0.7 0.3 1.5c0 0.8 0 1.1 0 3.2s0 2.4 0 3.2c0 0.8-0.2 1.2-0.3 1.5c-0.1 0.4-0.3 0.6-0.6 0.9c-0.3 0.3-0.5 0.4-0.9 0.6 c-0.3 0.1-0.7 0.2-1.5 0.3c-0.8 0-1.1 0-3.2 0c-2.1 0-2.4 0-3.2 0c-0.8 0-1.2-0.2-1.5-0.3C3 14 2.7 13.8 2.4 13.5 C2.2 13.2 2 13 1.9 12.6c-0.1-0.3-0.2-0.7-0.3-1.5c0-0.8 0-1.1 0-3.2s0-2.4 0-3.2c0-0.8 0.2-1.2 0.3-1.5C2 2.9 2.2 2.7 2.4 2.4 S3 2 3.4 1.8C3.6 1.7 4 1.6 4.8 1.6C5.6 1.5 5.9 1.5 8 1.5 M8 0.1c-2.1 0-2.4 0-3.2 0c-0.8 0-1.4 0.2-1.9 0.4 C2.3 0.7 1.9 1 1.4 1.4C1 1.8 0.7 2.3 0.5 2.8C0.3 3.3 0.2 3.9 0.2 4.7c0 0.8 0 1.1 0 3.2c0 2.1 0 2.4 0 3.2c0 0.8 0.2 1.4 0.4 1.9 c0.2 0.5 0.5 1 0.9 1.4c0.4 0.4 0.9 0.7 1.4 0.9c0.5 0.2 1.1 0.3 1.9 0.4c0.8 0 1.1 0 3.2 0c2.1 0 2.4 0 3.2 0 c0.8 0 1.4-0.2 1.9-0.4c0.5-0.2 1-0.5 1.4-0.9c0.4-0.4 0.7-0.9 0.9-1.4c0.2-0.5 0.3-1.1 0.4-1.9c0-0.8 0-1.1 0-3.2 c0-2.1 0-2.4 0-3.2c0-0.8-0.2-1.4-0.4-1.9c-0.2-0.5-0.5-1-0.9-1.4c-0.4-0.4-0.9-0.7-1.4-0.9c-0.5-0.2-1.1-0.3-1.9-0.4 C10.4 0.1 10.1 0.1 8 0.1L8 0.1z"/>
		<path d="M8 3.9c-2.2 0-4 1.8-4 4s1.8 4 4 4c2.2 0 4-1.8 4-4S10.2 3.9 8 3.9z M8 10.6c-1.4 0-2.6-1.2-2.6-2.6 c0-1.5 1.2-2.6 2.6-2.6c1.5 0 2.6 1.2 2.6 2.6C10.6 9.4 9.4 10.6 8 10.6z"/>
		<circle cx="12.2" cy="3.8" r="0.9"/>
	</symbol>
	<symbol class="i" id="youtube" width="100%" height="100%" viewBox="0 0 16 16">
		<path class="g" d="M15.4 5.8c0 0-0.1-1-0.6-1.4c-0.6-0.6-1.2-0.6-1.5-0.6c-2.1-0.1-5.1-0.1-5.1-0.1h0c0 0-3.1 0-5.1 0.1 c-0.3 0-0.9 0-1.5 0.6C1.1 4.8 1 5.8 1 5.8S0.8 7 0.8 8.1v1.1c0 1.2 0.1 2.3 0.1 2.3s0.1 1 0.6 1.4c0.6 0.6 1.3 0.6 1.6 0.6 c1.2 0.1 5 0.1 5 0.1s3.1 0 5.2-0.2c0.3 0 0.9 0 1.5-0.6c0.4-0.4 0.6-1.4 0.6-1.4s0.1-1.2 0.1-2.3V8.1C15.5 7 15.4 5.8 15.4 5.8z M6.7 10.6l0-4l4 2L6.7 10.6z"/>
	</symbol>
	<symbol class="i" id="mail" width="100%" height="100%" viewBox="0 0 16 16">
		<path class="g" d="M3.1 6.7c0.2 0.1 0.6 0.4 1.4 1c0.8 0.6 1.4 1 1.8 1.3c0 0 0.1 0.1 0.3 0.2C6.8 9.3 7 9.4 7.1 9.5 c0.1 0.1 0.2 0.1 0.4 0.2c0.1 0.1 0.3 0.1 0.4 0.2c0.1 0 0.2 0.1 0.4 0.1h0h0c0.1 0 0.2 0 0.4-0.1c0.1 0 0.3-0.1 0.4-0.2 c0.1-0.1 0.3-0.2 0.4-0.2c0.1-0.1 0.2-0.2 0.4-0.3C9.8 9.1 9.9 9 10 9c0.4-0.3 1.5-1.1 3.3-2.3c0.3-0.2 0.6-0.5 0.9-0.9 c0.2-0.3 0.3-0.7 0.3-1.1c0-0.3-0.1-0.6-0.3-0.8c-0.2-0.2-0.5-0.3-0.8-0.3H3C2.6 3.7 2.4 3.8 2.2 4C2 4.3 1.9 4.6 1.9 4.9 c0 0.3 0.1 0.6 0.4 1C2.5 6.2 2.8 6.5 3.1 6.7z"/>
		<path class="g" d="M13.8 7.5c-1.5 1-2.7 1.8-3.5 2.4c-0.3 0.2-0.5 0.4-0.7 0.5c-0.2 0.1-0.4 0.2-0.7 0.3 c-0.3 0.1-0.5 0.2-0.8 0.2h0h0c-0.2 0-0.5-0.1-0.8-0.2c-0.3-0.1-0.5-0.2-0.7-0.3c-0.2-0.1-0.4-0.3-0.7-0.5C5.5 9.4 4.3 8.6 2.6 7.5 C2.3 7.3 2.1 7.1 1.9 6.9v5.6c0 0.3 0.1 0.6 0.3 0.8c0.2 0.2 0.5 0.3 0.8 0.3h10.3c0.3 0 0.6-0.1 0.8-0.3c0.2-0.2 0.3-0.5 0.3-0.8 V6.9C14.3 7.1 14 7.3 13.8 7.5z"/>
	</symbol>
	<symbol class="i" id="megaphone" width="100%" height="100%" viewBox="0 0 16 16">
		<path class="g" d="M14.4 6.1c-0.2-0.2-0.4-0.3-0.7-0.3h0V3c0-0.3-0.1-0.5-0.3-0.7C13.3 2.1 13 2 12.8 2C10.5 3.9 8.2 4.9 6 4.9 H2.4C2.1 4.9 1.8 5 1.6 5.2C1.3 5.5 1.2 5.8 1.2 6.1v1.4c0 0.3 0.1 0.6 0.4 0.9c0.2 0.2 0.5 0.4 0.9 0.4h0.9C3.2 9 3.2 9.3 3.2 9.6 c0 0.3 0 0.5 0 0.7c0 0.2 0 0.5 0.1 0.8c0.1 0.3 0.1 0.5 0.2 0.7c0 0.2 0.1 0.4 0.2 0.7c0.1 0.3 0.2 0.5 0.2 0.7 c0.2 0.2 0.6 0.3 1 0.4c0.4 0.1 0.9 0 1.3-0.1c0.4-0.1 0.7-0.3 0.8-0.6c-0.2-0.2-0.3-0.3-0.5-0.4c-0.1-0.1-0.2-0.2-0.4-0.4 C6 11.9 6 11.8 5.9 11.6c0-0.1-0.1-0.3 0-0.4c0-0.2 0.1-0.3 0.2-0.5c-0.2-0.2-0.3-0.4-0.3-0.7c0-0.3 0.1-0.5 0.2-0.8 C6.1 9 6.4 8.9 6.7 8.8c2 0.2 4 1.1 6.1 2.9c0.3 0 0.5-0.1 0.7-0.3c0.2-0.2 0.3-0.4 0.3-0.7V7.8c0.3 0 0.5-0.1 0.7-0.3 c0.2-0.2 0.3-0.4 0.3-0.7C14.7 6.5 14.6 6.3 14.4 6.1z M12.8 10.4C10.8 8.9 8.9 8 7 7.8v-2c1.9-0.2 3.8-1.1 5.8-2.6V10.4z"/>
	</symbol>
	<symbol class="i" id="rss" width="100%" height="100%" viewBox="0 0 16 16">
		<path class="g" d="M2.9 7.2v2.3c2.5 0 4.6 2.1 4.6 4.6h2.3C9.8 10.3 6.7 7.2 2.9 7.2z"/>
		<path class="g" d="M2.9 2.6v2.3c5.1 0 9.2 4.1 9.2 9.2h2.3C14.4 7.8 9.2 2.6 2.9 2.6z"/>
		<path class="g" d="M4 11.8c-0.6 0-1.1 0.5-1.1 1.2c0 0.6 0.5 1.1 1.1 1.1c0.6 0 1.2-0.5 1.2-1.1C5.2 12.3 4.6 11.8 4 11.8z"/>
	</symbol>
	<symbol class="i" id="money" width="100%" height="100%" viewBox="0 0 16 16">
		<path class="g" d="M12.5 9.7c-0.1-0.3-0.2-0.5-0.3-0.7c-0.1-0.2-0.3-0.4-0.5-0.6c-0.2-0.2-0.4-0.3-0.6-0.4 c-0.2-0.1-0.4-0.2-0.7-0.4C10.2 7.5 10 7.4 9.8 7.3C9.7 7.3 9.4 7.2 9.1 7.1C8.8 7 8.6 6.9 8.5 6.8C8.3 6.8 8.1 6.7 7.9 6.6 C7.7 6.5 7.5 6.4 7.4 6.3C7.3 6.2 7.2 6.1 7.1 6C6.9 5.9 6.9 5.8 6.8 5.6C6.8 5.5 6.7 5.4 6.7 5.2c0-0.4 0.2-0.7 0.5-1 C7.6 4 8.1 3.8 8.7 3.8c0.3 0 0.5 0 0.8 0.1C9.7 4 9.9 4.1 10.1 4.2c0.2 0.1 0.4 0.2 0.5 0.3c0.2 0.1 0.3 0.2 0.3 0.2 c0.1 0.1 0.1 0.1 0.1 0.1c0.1 0.1 0.2 0.1 0.2 0.1c0.1 0 0.2-0.1 0.2-0.1l0.7-1.3c0.1-0.1 0.1-0.2 0-0.3c0 0-0.1-0.1-0.1-0.1 c-0.1 0-0.2-0.1-0.3-0.3c-0.2-0.1-0.4-0.2-0.6-0.3c-0.2-0.1-0.5-0.2-0.8-0.3c-0.3-0.1-0.6-0.2-1-0.2V0.3c0-0.1 0-0.2-0.1-0.2 C9.3 0 9.2 0 9.1 0H7.9C7.8 0 7.8 0 7.7 0.1C7.6 0.1 7.6 0.2 7.6 0.3v1.6C6.7 2.1 5.9 2.5 5.3 3.1C4.8 3.7 4.5 4.4 4.5 5.2 c0 0.2 0 0.5 0.1 0.7c0.1 0.2 0.1 0.4 0.2 0.6C4.8 6.7 4.9 6.9 5 7.1c0.1 0.2 0.3 0.3 0.4 0.4c0.1 0.1 0.3 0.2 0.5 0.4 C6.1 8 6.3 8.1 6.4 8.2C6.6 8.3 6.7 8.4 7 8.5c0.2 0.1 0.4 0.2 0.5 0.2c0.1 0.1 0.3 0.1 0.5 0.2c0.3 0.1 0.6 0.2 0.7 0.3 c0.2 0.1 0.4 0.2 0.6 0.3c0.2 0.1 0.4 0.2 0.5 0.3c0.1 0.1 0.2 0.2 0.3 0.4c0.1 0.1 0.1 0.3 0.1 0.5c0 0.5-0.2 0.8-0.5 1.1 C9.4 12 9 12.2 8.5 12.2c-0.2 0-0.4 0-0.7-0.1c-0.8-0.2-1.5-0.5-2.2-1.1l0 0c-0.1-0.1-0.1-0.1-0.2-0.1c-0.1 0-0.2 0-0.2 0.1 l-0.9 1.2c-0.1 0.1-0.1 0.2 0 0.4c0 0 0.1 0.1 0.2 0.2c0.1 0.1 0.2 0.2 0.4 0.3c0.2 0.2 0.4 0.3 0.7 0.4c0.2 0.1 0.5 0.3 0.9 0.4 s0.7 0.2 1.1 0.3v1.6c0 0.1 0 0.1 0.1 0.2C7.8 16 7.8 16 7.9 16h1.2c0.1 0 0.2 0 0.2-0.1c0.1-0.1 0.1-0.1 0.1-0.2v-1.6 c0.9-0.2 1.7-0.6 2.3-1.2c0.6-0.7 0.9-1.4 0.9-2.4C12.6 10.3 12.6 10 12.5 9.7z"/>
	</symbol>
	<symbol class="i" id="search" width="100%" height="100%" viewBox="0 0 16 16">
		<path class="g" d="M1.1 13.2l3-3C3.4 9.1 3.1 7.9 3.1 6.6c0-0.8 0.2-1.6 0.5-2.4s0.8-1.4 1.3-2c0.6-0.6 1.2-1 2-1.3 c0.8-0.3 1.6-0.5 2.4-0.5s1.6 0.2 2.4 0.5c0.8 0.3 1.4 0.8 2 1.3c0.6 0.6 1 1.2 1.3 2c0.3 0.8 0.5 1.6 0.5 2.4 c0 0.8-0.2 1.6-0.5 2.4c-0.3 0.8-0.8 1.4-1.3 2c-0.6 0.6-1.2 1-2 1.3c-0.8 0.3-1.6 0.5-2.4 0.5c-1.3 0-2.5-0.4-3.5-1.1l-3 3 C2.5 15 2.3 15.1 2 15.1c-0.3 0-0.6-0.1-0.8-0.3c-0.2-0.2-0.3-0.5-0.3-0.8C0.8 13.7 0.9 13.4 1.1 13.2z M6.5 9.4 c0.8 0.8 1.7 1.2 2.8 1.2c1.1 0 2-0.4 2.8-1.2c0.8-0.8 1.2-1.7 1.2-2.8c0-1.1-0.4-2-1.2-2.8s-1.7-1.2-2.8-1.2s-2 0.4-2.8 1.2 C5.7 4.6 5.3 5.6 5.3 6.6C5.3 7.7 5.7 8.7 6.5 9.4z"/>
	</symbol>
	<symbol class="i" id="exit" width="100%" height="100%" viewBox="0 0 16 16">
		<path class="g" d="M14.9 7.4L10.4 3c-0.1-0.1-0.2-0.2-0.4-0.2C9.9 2.9 9.8 2.9 9.7 3C9.6 3.1 9.6 3.3 9.6 3.4v2.3H5.9 c-0.1 0-0.3 0.1-0.4 0.2C5.5 6 5.4 6.1 5.4 6.2v3.1c0 0.1 0.1 0.3 0.2 0.4c0.1 0.1 0.2 0.2 0.4 0.2h3.6v2.3c0 0.1 0.1 0.3 0.2 0.4 c0.1 0.1 0.2 0.2 0.4 0.2c0.1 0 0.3-0.1 0.4-0.2l4.4-4.4C15 8.1 15 7.9 15 7.8C15 7.7 15 7.5 14.9 7.4z"/>
		<path class="g" d="M7.5 12.2c0 0 0-0.1 0-0.1c0 0 0-0.1-0.1-0.1c0 0-0.1 0-0.1 0c0 0 0 0-0.1 0c-0.1 0-0.1 0-0.1 0H7.1H7H4.6 c-0.4 0-0.7-0.1-0.9-0.4c-0.3-0.3-0.4-0.6-0.4-0.9V5c0-0.4 0.1-0.7 0.4-0.9C4 3.8 4.3 3.7 4.6 3.7h2.6c0.1 0 0.1 0 0.2-0.1 c0 0 0.1-0.1 0.1-0.2c0-0.1 0-0.1 0-0.2c0-0.1 0-0.1 0-0.2c0-0.1 0-0.1 0-0.2c0-0.1 0-0.1-0.1-0.2C7.4 2.6 7.3 2.6 7.2 2.6H4.6 C4 2.6 3.4 2.8 3 3.3C2.5 3.8 2.3 4.3 2.3 5v5.7c0 0.6 0.2 1.2 0.7 1.6C3.4 12.8 4 13 4.6 13h2.6c0.1 0 0.1 0 0.2-0.1 c0 0 0.1-0.1 0.1-0.2c0-0.1 0-0.1 0-0.2c0-0.1 0-0.1 0-0.2C7.5 12.3 7.5 12.2 7.5 12.2z"/>
	</symbol>
	<symbol class="i" id="signal" width="100%" height="100%" viewBox="0 0 16 16">
		<path class="g" d="M9.1 8.6H7.3c-0.1 0-0.2 0-0.2 0.1C7 8.7 7 8.8 7 8.9v5.3c0 0.1 0 0.2 0.1 0.2c0.1 0.1 0.1 0.1 0.2 0.1h1.8 c0.1 0 0.2 0 0.2-0.1c0.1-0.1 0.1-0.1 0.1-0.2V8.9c0-0.1 0-0.2-0.1-0.2C9.2 8.6 9.1 8.6 9.1 8.6z"/>
		<path class="g" d="M5.6 10.9H3.8c-0.1 0-0.2 0-0.2 0.1c-0.1 0.1-0.1 0.1-0.1 0.2v2.9c0 0.1 0 0.2 0.1 0.2 c0.1 0.1 0.1 0.1 0.2 0.1h1.8c0.1 0 0.2 0 0.2-0.1c0.1-0.1 0.1-0.1 0.1-0.2v-2.9c0-0.1 0-0.2-0.1-0.2C5.7 11 5.6 10.9 5.6 10.9z"/>
		<path class="g" d="M12.6 5.1h-1.8c-0.1 0-0.2 0-0.2 0.1c-0.1 0.1-0.1 0.1-0.1 0.2v8.8c0 0.1 0 0.2 0.1 0.2 c0.1 0.1 0.1 0.1 0.2 0.1h1.8c0.1 0 0.2 0 0.2-0.1c0.1-0.1 0.1-0.1 0.1-0.2V5.4c0-0.1 0-0.2-0.1-0.2C12.7 5.1 12.6 5.1 12.6 5.1z" />
	</symbol>
	<symbol class="i" id="people" width="100%" height="100%" viewBox="0 0 16 16">
		<path class="g" d="M4.4 5.7c0.5 0 0.9-0.2 1.2-0.5C5.9 4.8 6.1 4.4 6.1 4c0-0.5-0.2-0.9-0.5-1.2C5.2 2.4 4.8 2.3 4.4 2.3 c-0.5 0-0.9 0.2-1.2 0.5C2.8 3.1 2.7 3.5 2.7 4c0 0.5 0.2 0.9 0.5 1.2C3.5 5.5 3.9 5.7 4.4 5.7z"/>
		<path class="g" d="M6.4 8.3c0.5 0.5 1.1 0.7 1.8 0.7S9.5 8.8 10 8.3c0.5-0.5 0.7-1.1 0.7-1.8c0-0.7-0.2-1.3-0.7-1.8 C9.5 4.2 8.9 4 8.2 4S6.9 4.2 6.4 4.7C5.9 5.2 5.6 5.8 5.6 6.5C5.6 7.2 5.9 7.8 6.4 8.3z"/>
		<path class="g" d="M12 5.7c0.5 0 0.9-0.2 1.2-0.5c0.3-0.3 0.5-0.7 0.5-1.2c0-0.5-0.2-0.9-0.5-1.2c-0.3-0.3-0.7-0.5-1.2-0.5 c-0.5 0-0.9 0.2-1.2 0.5c-0.3 0.3-0.5 0.7-0.5 1.2c0 0.5 0.2 0.9 0.5 1.2C11.1 5.5 11.5 5.7 12 5.7z"/>
		<path class="g" d="M13.7 5.7c0 0-0.1 0-0.3 0.1c-0.2 0.1-0.4 0.2-0.6 0.3c-0.3 0.1-0.5 0.1-0.8 0.1c-0.3 0-0.6-0.1-0.9-0.2 c0 0.2 0 0.3 0 0.4c0 0.6-0.2 1.2-0.5 1.7c0.7 0 1.3 0.3 1.8 0.9h0.9c0.4 0 0.7-0.1 0.9-0.3c0.2-0.2 0.4-0.4 0.4-0.8 C14.6 6.5 14.3 5.7 13.7 5.7z"/>
		<path class="g" d="M12.7 11.1c0-0.3-0.1-0.5-0.2-0.7c-0.1-0.2-0.2-0.4-0.3-0.6c-0.1-0.2-0.3-0.4-0.4-0.5 c-0.2-0.1-0.3-0.3-0.6-0.4c-0.2-0.1-0.5-0.1-0.7-0.1c0 0-0.1 0-0.3 0.1C10.1 8.9 10 9 9.8 9.1C9.6 9.2 9.4 9.3 9.1 9.4 C8.8 9.5 8.5 9.6 8.2 9.6c-0.3 0-0.6 0-0.9-0.1C7 9.3 6.7 9.2 6.6 9.1S6.2 8.9 6.1 8.8C5.9 8.7 5.8 8.7 5.8 8.7 c-0.3 0-0.5 0-0.7 0.1C4.8 8.9 4.6 9 4.5 9.1C4.3 9.3 4.2 9.5 4.1 9.7C4 9.9 3.9 10.1 3.8 10.3c-0.1 0.2-0.1 0.5-0.2 0.7 c0 0.3-0.1 0.5-0.1 0.7c0 0.2 0 0.5 0 0.7c0 0.5 0.2 1 0.5 1.3c0.3 0.3 0.8 0.5 1.3 0.5h5.8c0.5 0 1-0.2 1.3-0.5 c0.3-0.3 0.5-0.7 0.5-1.3c0-0.2 0-0.5 0-0.7C12.8 11.6 12.8 11.3 12.7 11.1z"/>
		<path class="g" d="M5.7 8.2C5.4 7.7 5.2 7.1 5.2 6.5c0-0.1 0-0.3 0-0.4C4.9 6.2 4.6 6.2 4.4 6.2c-0.3 0-0.5 0-0.8-0.1 C3.3 6 3.1 5.9 2.9 5.8C2.7 5.7 2.7 5.7 2.6 5.7C2.1 5.7 1.8 6.5 1.8 8c0 0.3 0.1 0.6 0.4 0.8C2.4 9 2.7 9.1 3.1 9.1H4 C4.4 8.5 5 8.3 5.7 8.2z"/>
	</symbol>
	<symbol class="i" id="tablet" width="100%" height="100%" viewBox="0 0 16 16">
		<path class="g" d="M13.1 0.9c-0.3-0.3-0.7-0.5-1.2-0.5H4.4C4 0.4 3.6 0.6 3.2 0.9C2.9 1.3 2.7 1.6 2.7 2.1v11.5 c0 0.5 0.2 0.9 0.5 1.2c0.3 0.3 0.7 0.5 1.2 0.5h7.5c0.5 0 0.9-0.2 1.2-0.5c0.3-0.3 0.5-0.7 0.5-1.2V2.1 C13.6 1.6 13.5 1.2 13.1 0.9z M8.6 14.5c-0.1 0.1-0.3 0.2-0.5 0.2c-0.2 0-0.3-0.1-0.5-0.2c-0.1-0.1-0.2-0.3-0.2-0.5 c0-0.2 0.1-0.3 0.2-0.5c0.1-0.1 0.3-0.2 0.5-0.2c0.2 0 0.3 0.1 0.5 0.2c0.1 0.1 0.2 0.3 0.2 0.5C8.9 14.2 8.8 14.3 8.6 14.5z  M11.6 12.3c0 0.1 0 0.2-0.1 0.2c-0.1 0.1-0.1 0.1-0.2 0.1H5.1c-0.1 0-0.2 0-0.2-0.1c-0.1-0.1-0.1-0.1-0.1-0.2V2.8 c0-0.1 0-0.2 0.1-0.2C4.9 2.5 5 2.4 5.1 2.4h6.2c0.1 0 0.2 0 0.2 0.1c0.1 0.1 0.1 0.1 0.1 0.2V12.3z"/>
	</symbol>
	<symbol class="i" id="phone" width="100%" height="100%" viewBox="0 0 16 16">
		<path class="g" d="M14.5 10.9c0-0.1-0.2-0.2-0.6-0.4c-0.1-0.1-0.3-0.1-0.4-0.2c-0.2-0.1-0.4-0.2-0.5-0.3 c-0.2-0.1-0.3-0.2-0.4-0.3c0 0-0.1-0.1-0.2-0.1C12.1 9.4 12 9.4 12 9.3c-0.1 0-0.2-0.1-0.2-0.1c-0.1 0-0.2 0.1-0.4 0.2 C11.1 9.7 11 9.8 10.9 10c-0.1 0.2-0.3 0.4-0.4 0.5c-0.2 0.2-0.3 0.2-0.4 0.2c0 0-0.1 0-0.2 0c-0.1 0-0.1-0.1-0.2-0.1 c0 0-0.1-0.1-0.2-0.1c-0.1-0.1-0.1-0.1-0.2-0.1C8.6 10 7.9 9.5 7.4 9c-0.5-0.5-1-1.2-1.4-1.9c0 0 0-0.1-0.1-0.2 C5.8 6.8 5.8 6.7 5.7 6.7c0 0 0-0.1-0.1-0.2c0-0.1 0-0.1 0-0.2c0-0.1 0.1-0.2 0.2-0.4C6 5.8 6.2 5.7 6.4 5.5 c0.2-0.1 0.4-0.3 0.5-0.5C7 4.9 7.1 4.8 7.1 4.7c0-0.1 0-0.2-0.1-0.2C7 4.3 7 4.3 6.9 4.1C6.8 4 6.8 4 6.7 3.9 C6.7 3.8 6.6 3.6 6.5 3.5C6.4 3.3 6.3 3.2 6.2 3C6.1 2.8 6 2.6 5.9 2.5C5.8 2.1 5.6 1.9 5.5 1.9c0 0-0.1 0-0.2 0 c-0.1 0-0.3 0-0.6 0.1C4.5 2 4.3 2.1 4.2 2.1c-0.3 0.1-0.6 0.5-0.9 1C3 3.6 2.9 4.2 2.9 4.7c0 0.1 0 0.3 0 0.4C2.9 5.2 3 5.4 3 5.6 c0 0.2 0.1 0.3 0.1 0.4c0 0.1 0.1 0.2 0.2 0.5c0.1 0.2 0.1 0.4 0.1 0.4c0.2 0.5 0.4 1 0.7 1.4c0.4 0.7 1 1.4 1.8 2.2 c0.8 0.8 1.5 1.3 2.2 1.8c0.4 0.3 0.9 0.5 1.4 0.7c0 0 0.2 0.1 0.4 0.1c0.2 0.1 0.4 0.1 0.5 0.2c0.1 0 0.2 0.1 0.4 0.1 c0.2 0 0.3 0.1 0.5 0.1c0.1 0 0.3 0 0.4 0c0.5 0 1-0.1 1.5-0.4c0.6-0.3 0.9-0.6 1-0.9c0.1-0.1 0.1-0.3 0.2-0.6 c0.1-0.2 0.1-0.4 0.1-0.6C14.5 11 14.5 10.9 14.5 10.9z"/>
	</symbol>
	<symbol class="i" id="thumbUp" width="100%" height="100%" viewBox="0 0 16 16">
		<path class="w" d="M14.9 8.9c0.3-0.4 0.5-0.8 0.5-1.3c0-0.5-0.2-0.9-0.5-1.2c-0.3-0.3-0.7-0.5-1.2-0.5h-2.5c0-0.1 0-0.2 0.1-0.2 c0-0.1 0.1-0.1 0.1-0.2c0-0.1 0.1-0.1 0.1-0.2c0.1-0.2 0.2-0.4 0.2-0.5c0.1-0.1 0.1-0.3 0.2-0.5c0.1-0.2 0.1-0.5 0.1-0.7 c0-0.1 0-0.3 0-0.4c0-0.1 0-0.2 0-0.4c0-0.2-0.1-0.3-0.1-0.5c0-0.1-0.1-0.3-0.2-0.4c-0.1-0.2-0.2-0.3-0.4-0.4 c-0.1-0.1-0.3-0.2-0.5-0.2c-0.2-0.1-0.5-0.1-0.7-0.1c-0.2 0-0.3 0.1-0.4 0.2C9.4 1.5 9.3 1.6 9.2 1.8C9.1 2 9.1 2.1 9 2.3 C9 2.4 9 2.6 8.9 2.8C8.9 3.1 8.8 3.2 8.8 3.4c0 0.1-0.1 0.3-0.2 0.4C8.6 4 8.5 4.1 8.4 4.2C8.2 4.4 7.8 4.8 7.4 5.3 C7.1 5.7 6.8 6.1 6.5 6.4C6.2 6.7 6 6.9 5.8 6.9C5.7 6.9 5.6 7 5.5 7.1C5.3 7.2 5.3 7.4 5.3 7.5v5.8c0 0.2 0.1 0.3 0.2 0.4 c0.1 0.1 0.2 0.2 0.4 0.2c0.2 0 0.7 0.1 1.4 0.4c0.5 0.2 0.8 0.3 1.1 0.4c0.3 0.1 0.6 0.2 1.1 0.3C9.9 15 10.4 15 10.8 15h0.2h0.7 h0.3c0.8 0 1.4-0.2 1.8-0.7c0.3-0.4 0.5-1 0.4-1.6c0.2-0.2 0.4-0.5 0.5-0.8c0.1-0.4 0.1-0.7 0-1.1c0.3-0.4 0.4-0.8 0.4-1.2 C15 9.4 15 9.1 14.9 8.9z"/>
		<path class="w" d="M4.1 6.9H1.5C1.4 6.9 1.2 7 1.1 7.1C1 7.2 1 7.4 1 7.5v5.8c0 0.2 0.1 0.3 0.2 0.4c0.1 0.1 0.2 0.2 0.4 0.2h2.6 c0.2 0 0.3-0.1 0.4-0.2c0.1-0.1 0.2-0.2 0.2-0.4V7.5c0-0.2-0.1-0.3-0.2-0.4C4.4 7 4.3 6.9 4.1 6.9z M3.1 12.6 c-0.1 0.1-0.2 0.2-0.4 0.2c-0.2 0-0.3-0.1-0.4-0.2c-0.1-0.1-0.2-0.2-0.2-0.4c0-0.2 0.1-0.3 0.2-0.4c0.1-0.1 0.2-0.2 0.4-0.2 c0.2 0 0.3 0.1 0.4 0.2c0.1 0.1 0.2 0.2 0.2 0.4C3.3 12.3 3.2 12.4 3.1 12.6z"/>
	</symbol>
	<symbol class="i" id="mapMarker" width="100%" height="100%" viewBox="0 0 16 16">
		<path class="w" d="M11.1 2c-1-1-2.2-1.5-3.6-1.5S4.9 1 3.9 2S2.5 4.2 2.5 5.6c0 0.7 0.1 1.3 0.3 1.8L6.4 15 c0.1 0.2 0.3 0.4 0.5 0.5c0.2 0.1 0.4 0.2 0.7 0.2c0.2 0 0.5-0.1 0.7-0.2c0.2-0.1 0.4-0.3 0.5-0.5l3.6-7.6c0.2-0.5 0.3-1.1 0.3-1.8 C12.6 4.2 12.1 3 11.1 2z M9.3 7.4C8.8 7.9 8.2 8.1 7.5 8.1S6.2 7.9 5.7 7.4C5.2 6.9 5 6.3 5 5.6c0-0.7 0.2-1.3 0.7-1.8 C6.2 3.3 6.8 3 7.5 3c0.7 0 1.3 0.2 1.8 0.7C9.8 4.3 10 4.9 10 5.6S9.8 6.9 9.3 7.4z"/>
	</symbol>
	<symbol class="i" id="star" width="100%" height="100%" viewBox="0 0 16 16">
		<polygon class="t" points="6 6.1 8 0.4 10 6.1 16 6.2 11.2 9.8 12.9 15.6 8 12.2 3.1 15.6 4.8 9.8 0 6.2"/>
	</symbol>
	<symbol class="i" id="pdf" width="100%" height="100%" viewBox="0 0 16 16">
		<path class="b" d="M14.2 3.8c0.2 0.2 0.3 0.4 0.4 0.6c0.1 0.3 0.2 0.5 0.2 0.7v9.4c0 0.2-0.1 0.4-0.2 0.6 c-0.2 0.2-0.3 0.2-0.6 0.2h-11c-0.2 0-0.4-0.1-0.6-0.2c-0.2-0.2-0.2-0.3-0.2-0.6V1.4c0-0.2 0.1-0.4 0.2-0.6 c0.2-0.2 0.3-0.2 0.6-0.2h7.3c0.2 0 0.5 0.1 0.7 0.2s0.5 0.2 0.6 0.4L14.2 3.8z M10.5 1.8v3.1h3.1c-0.1-0.2-0.1-0.3-0.2-0.3 L10.9 2C10.8 1.9 10.7 1.8 10.5 1.8z M13.7 14.3V5.9h-3.4c-0.2 0-0.4-0.1-0.6-0.2C9.6 5.5 9.5 5.3 9.5 5.1V1.7H3.2v12.6H13.7z M9.5 9.4c0.2 0.1 0.4 0.3 0.7 0.5c0.3 0 0.6-0.1 1-0.1c0.8 0 1.3 0.1 1.4 0.4c0.1 0.1 0.1 0.3 0 0.4c0 0 0 0 0 0l0 0v0 c0 0.2-0.2 0.3-0.6 0.3c-0.3 0-0.6-0.1-0.9-0.2s-0.7-0.3-1.1-0.4c-1.2 0.1-2.3 0.4-3.2 0.7c-0.8 1.4-1.5 2.1-2 2.1 c-0.1 0-0.2 0-0.2-0.1l-0.2-0.1c0 0 0 0 0 0c-0.1-0.1-0.1-0.2 0-0.3c0-0.2 0.2-0.5 0.5-0.7s0.6-0.5 1.1-0.8c0.1 0 0.1 0 0.2 0 c0 0 0 0 0 0c0.3-0.5 0.6-1 0.9-1.6c0.4-0.7 0.7-1.5 0.9-2.1C7.6 7.1 7.5 6.6 7.5 6.2c0-0.4 0-0.8 0.1-1C7.6 5 7.7 4.9 7.9 4.9H8 c0.1 0 0.2 0 0.3 0.1c0.1 0.1 0.1 0.3 0.1 0.6c0 0 0 0.1 0 0.1c0 0 0 0 0 0.1v0.2c0 0.7 0 1.2-0.1 1.6C8.6 8.4 9 9 9.5 9.4z M4.7 12.8c0.3-0.1 0.7-0.6 1.1-1.3c-0.3 0.2-0.5 0.4-0.7 0.7C5 12.4 4.8 12.6 4.7 12.8z M8 5.3C7.9 5.5 7.9 5.9 8 6.3 C8 6.3 8 6.2 8 6c0 0 0-0.1 0.1-0.4c0 0 0 0 0-0.1c0 0 0 0 0 0c0 0 0 0 0 0c0 0 0 0 0 0C8.1 5.4 8.1 5.3 8 5.3C8 5.2 8 5.2 8 5.3 L8 5.3z M7 10.7c0.7-0.3 1.5-0.5 2.3-0.7c0 0 0 0-0.1-0.1c-0.1 0-0.1-0.1-0.1-0.1C8.7 9.5 8.3 9 8 8.4c-0.1 0.5-0.4 1-0.7 1.6 C7.2 10.3 7.1 10.5 7 10.7z M12.3 10.5c-0.1-0.1-0.5-0.2-1.1-0.2c0.4 0.2 0.8 0.2 1 0.2C12.2 10.6 12.3 10.6 12.3 10.5 C12.3 10.6 12.3 10.6 12.3 10.5z"/>
	</symbol>
	<symbol class="i" id="checkmark" width="100%" height="100%" viewBox="0 0 16 16">
		<path class="b" d="M15.7 3.6l-1.4-1.4c-0.2-0.2-0.4-0.3-0.7-0.3c-0.3 0-0.5 0.1-0.7 0.3L6.1 8.9l-3-3C2.9 5.7 2.7 5.6 2.4 5.6 c-0.3 0-0.5 0.1-0.7 0.3L0.3 7.3C0.1 7.5 0 7.7 0 8c0 0.3 0.1 0.5 0.3 0.7L4 12.4l1.4 1.4c0.2 0.2 0.4 0.3 0.7 0.3 c0.3 0 0.5-0.1 0.7-0.3l1.4-1.4L15.7 5C15.9 4.8 16 4.5 16 4.3C16 4 15.9 3.8 15.7 3.6z"/>
	</symbol>
	<symbol class="i" id="plus" width="100%" height="100%" viewBox="0 0 16 16">
		<path class="b" d="M15.1 0.9C14.5 0.3 13.7 0 12.9 0H3.1C2.2 0 1.5 0.3 0.9 0.9S0 2.2 0 3.1v9.8c0 0.9 0.3 1.6 0.9 2.2 C1.5 15.7 2.2 16 3.1 16h9.8c0.9 0 1.6-0.3 2.2-0.9c0.6-0.6 0.9-1.3 0.9-2.2V3.1C16 2.2 15.7 1.5 15.1 0.9z M14.2 12.9 c0 0.4-0.1 0.7-0.4 0.9c-0.3 0.3-0.6 0.4-0.9 0.4H3.1c-0.4 0-0.7-0.1-0.9-0.4c-0.3-0.3-0.4-0.6-0.4-0.9V3.1c0-0.4 0.1-0.7 0.4-0.9 c0.3-0.3 0.6-0.4 0.9-0.4h9.8c0.4 0 0.7 0.1 0.9 0.4c0.3 0.3 0.4 0.6 0.4 0.9V12.9z"/>
		<path class="b" d="M12 7.1H8.9V4c0-0.1 0-0.2-0.1-0.3C8.7 3.6 8.6 3.6 8.4 3.6H7.6c-0.1 0-0.2 0-0.3 0.1C7.2 3.8 7.1 3.9 7.1 4 v3.1H4c-0.1 0-0.2 0-0.3 0.1C3.6 7.3 3.6 7.4 3.6 7.6v0.9c0 0.1 0 0.2 0.1 0.3C3.8 8.8 3.9 8.9 4 8.9h3.1V12c0 0.1 0 0.2 0.1 0.3 c0.1 0.1 0.2 0.1 0.3 0.1h0.9c0.1 0 0.2 0 0.3-0.1c0.1-0.1 0.1-0.2 0.1-0.3V8.9H12c0.1 0 0.2 0 0.3-0.1c0.1-0.1 0.1-0.2 0.1-0.3 V7.6c0-0.1 0-0.2-0.1-0.3C12.2 7.2 12.1 7.1 12 7.1z"/>
	</symbol>
	<symbol class="i" id="minus" width="100%" height="100%" viewBox="0 0 16 16">
		<path d="M15.1 0.9C14.5 0.3 13.7 0 12.9 0H3.1C2.2 0 1.5 0.3 0.9 0.9C0.3 1.5 0 2.2 0 3.1v9.8c0 0.9 0.3 1.6 0.9 2.2 C1.5 15.7 2.2 16 3.1 16h9.8c0.9 0 1.6-0.3 2.2-0.9c0.6-0.6 0.9-1.3 0.9-2.2V3.1C16 2.2 15.7 1.5 15.1 0.9z M14.2 12.9 c0 0.4-0.1 0.7-0.4 0.9c-0.3 0.3-0.6 0.4-0.9 0.4H3.1c-0.4 0-0.7-0.1-0.9-0.4c-0.3-0.3-0.4-0.6-0.4-0.9V3.1c0-0.4 0.1-0.7 0.4-0.9 c0.3-0.3 0.6-0.4 0.9-0.4h9.8c0.4 0 0.7 0.1 0.9 0.4s0.4 0.6 0.4 0.9V12.9z"/>
		<path d="M12 7.1H4c-0.1 0-0.2 0-0.3 0.1C3.6 7.3 3.6 7.4 3.6 7.6v0.9c0 0.1 0 0.2 0.1 0.3C3.8 8.8 3.9 8.9 4 8.9h8 c0.1 0 0.2 0 0.3-0.1c0.1-0.1 0.1-0.2 0.1-0.3V7.6c0-0.1 0-0.2-0.1-0.3C12.2 7.2 12.1 7.1 12 7.1z"/>
	</symbol>
	<symbol class="i" id="ting" width="100%" height="100%" viewBox="0 0 16 16">
		<path class="t" d="M4.66 5.05c-0.5 0-0.86-0.41-0.86-0.91c0-0.5 0.36-0.91 0.86-0.91c0.5 0 0.86 0.41 0.86 0.91 C5.52 4.64 5.16 5.05 4.66 5.05z"/>
		<path class="t" d="M10.23 11.24H9.35c-0.17 0-0.31-0.14-0.31-0.31V7.24c0-0.28-0.12-0.49-0.48-0.49c-0.5 0-0.86 0.48-0.86 1.15 v3.02c0 0.17-0.14 0.31-0.31 0.31H6.51c-0.17 0-0.31-0.14-0.31-0.31V5.88c0-0.17 0.14-0.31 0.31-0.31h0.67 c0.19 0 0.29 0.12 0.32 0.28l0.08 0.37c0.44-0.48 0.93-0.73 1.53-0.73c0.87 0 1.43 0.58 1.43 1.46v3.98 C10.55 11.1 10.41 11.24 10.23 11.24z"/>
		<path class="t" d="M13.52 13.61c-1.24 0-2.43-0.41-2.47-1.76c0-0.17 0.14-0.34 0.31-0.33l0.83 0.03 c0.19 0.01 0.24 0.12 0.29 0.29c0.12 0.47 0.59 0.59 1.07 0.59c0.75 0 1.1-0.3 1.1-0.68c0-0.4-0.15-0.51-0.72-0.51h-1.21 c-0.61 0-1.38-0.19-1.38-1.06c0-0.37 0.2-0.68 0.46-0.92c-0.48-0.36-0.77-0.93-0.77-1.65c0-1.35 0.88-2.11 2.24-2.11 c0.25 0 0.48 0.05 0.72 0.05h1.38c0.27 0 0.36 0.12 0.36 0.33v0.37c0 0.26-0.06 0.3-0.22 0.34l-0.3 0.07 c0.17 0.29 0.32 0.58 0.32 0.96c0 1.29-0.85 2.12-2.25 2.12c-0.19 0-0.37-0.02-0.54-0.06C12.7 9.76 12.67 9.8 12.67 9.9 c0 0.2 0.19 0.22 0.37 0.22h1.09c1.14 0 1.87 0.51 1.87 1.56C16 13.16 14.59 13.61 13.52 13.61z M13.3 6.63 c-0.44 0-0.78 0.13-0.78 0.97c0 0.89 0.35 1.02 0.78 1.02c0.39 0 0.79-0.17 0.79-1.02C14.08 6.75 13.72 6.63 13.3 6.63z"/>
		<path class="t" d="M5.12 5.57H2.41c0 0 0-1.29 0-1.3V3.91c0-0.18-0.14-0.31-0.31-0.31H1.22C1.04 3.6 0.9 3.74 0.9 3.91l0 1.65 H0.31C0.14 5.57 0 5.71 0 5.88v0.51c0 0.17 0.14 0.31 0.31 0.31H0.9v3.17c0 0.89 0.38 1.44 1.35 1.44c0.41 0 0.85-0.07 1.12-0.16 c0.15-0.05 0.22-0.16 0.2-0.31l-0.14-0.73C3.4 9.92 3.28 9.85 3.1 9.9C3.01 9.92 2.86 9.93 2.76 9.93c-0.21 0-0.35-0.14-0.35-0.45 V6.71h1.52v4.22c0 0.17 0.14 0.31 0.31 0.31h0.88c0.17 0 0.31-0.14 0.31-0.31V5.88C5.44 5.71 5.3 5.57 5.12 5.57z"/>
	</symbol>
	<symbol class="i" id="fedex5Day" width="100%" height="100%" viewBox="0 0 146 146">
		<g fill="#40A629">
			<polygon points="132.3 100.5 126.4 93.9 120.5 100.5 108.2 100.5 120.2 87 108.2 73.4 120.9 73.4 126.9 80 132.6 73.4 144.8 73.4 132.9 86.9 145 100.5 	"/>
			<polygon points="84.6 100.5 84.6 57.9 108.2 57.9 108.2 67.4 94.6 67.4 94.6 73.4 108.2 73.4 108.2 82.6 94.6 82.6 94.6 91 108.2 91 108.2 100.5 	"/>
		</g>
		<path fill="#2A007C" d="M74.6 57.9v17.4h-0.1c-2.2-2.5-5-3.4-8.2-3.4c-6.6 0-11.5 4.5-13.2 10.3c-2-6.5-7.1-10.5-14.6-10.5 c-6.1 0-11 2.8-13.5 7.2v-5.6H12.3v-6.1h13.8v-9.5H1v42.6h11.3V82.6h11.3c-0.3 1.3-0.5 2.7-0.5 4.2c0 8.9 6.8 15.1 15.4 15.1 c7.3 0 12.1-3.4 14.6-9.6h-9.7c-1.3 1.9-2.3 2.4-4.9 2.4c-3 0-5.7-2.7-5.7-5.8h19.7c0.9 7.1 6.3 13.1 13.9 13.1 c3.3 0 6.2-1.6 8.1-4.3h0.1v2.8h10V57.9L74.6 57.9L74.6 57.9z M33.2 82.7c0.6-2.7 2.7-4.5 5.3-4.5c2.9 0 4.9 1.7 5.4 4.5 C43.9 82.7 33.2 82.7 33.2 82.7z M68.6 94c-3.7 0-6-3.4-6-7c0-3.8 2-7.5 6-7.5c4.1 0 5.8 3.7 5.8 7.5C74.3 90.6 72.6 94 68.6 94z"/>
	</symbol>
	<symbol class="i" id="fedex3Day" width="100%" height="100%" viewBox="0 0 146 146">
		<g fill="#FF6600">
			<polygon points="132.3 100.5 126.4 93.9 120.5 100.5 108.2 100.5 120.2 87 108.2 73.4 120.9 73.4 126.9 80 132.6 73.4 144.8 73.4 132.9 86.9 145 100.5 	"/>
			<polygon points="84.6 100.5 84.6 57.9 108.2 57.9 108.2 67.4 94.6 67.4 94.6 73.4 108.2 73.4 108.2 82.6 94.6 82.6 94.6 91 108.2 91 108.2 100.5 	"/>
		</g>
		<path fill="#2A007C" d="M74.6 57.9v17.4h-0.1c-2.2-2.5-5-3.4-8.2-3.4c-6.6 0-11.5 4.5-13.2 10.3c-2-6.5-7.1-10.5-14.6-10.5 c-6.1 0-11 2.8-13.5 7.2v-5.6H12.3v-6.1h13.8v-9.5H1v42.6h11.3V82.6h11.3c-0.3 1.3-0.5 2.7-0.5 4.2c0 8.9 6.8 15.1 15.4 15.1 c7.3 0 12.1-3.4 14.6-9.6h-9.7c-1.3 1.9-2.3 2.4-4.9 2.4c-3 0-5.7-2.7-5.7-5.8h19.7c0.9 7.1 6.3 13.1 13.9 13.1 c3.3 0 6.2-1.6 8.1-4.3h0.1v2.8h10V57.9L74.6 57.9L74.6 57.9z M33.2 82.7c0.6-2.7 2.7-4.5 5.3-4.5c2.9 0 4.9 1.7 5.4 4.5 C43.9 82.7 33.2 82.7 33.2 82.7z M68.6 94c-3.7 0-6-3.4-6-7c0-3.8 2-7.5 6-7.5c4.1 0 5.8 3.7 5.8 7.5C74.3 90.6 72.6 94 68.6 94z"/>
	</symbol>
	<symbol class="i" id="fedex2Day" width="100%" height="100%" viewBox="0 0 146 146">
		<g fill="#9E9E9E">
			<polygon points="132.3 100.5 126.4 93.9 120.5 100.5 108.2 100.5 120.2 87 108.2 73.4 120.9 73.4 126.9 80 132.6 73.4 144.8 73.4 132.9 86.9 145 100.5 	"/>
			<polygon points="84.6 100.5 84.6 57.9 108.2 57.9 108.2 67.4 94.6 67.4 94.6 73.4 108.2 73.4 108.2 82.6 94.6 82.6 94.6 91 108.2 91 108.2 100.5 	"/>
		</g>
		<path fill="#2A007C" d="M74.6 57.9v17.4h-0.1c-2.2-2.5-5-3.4-8.2-3.4c-6.6 0-11.5 4.5-13.2 10.3c-2-6.5-7.1-10.5-14.6-10.5 c-6.1 0-11 2.8-13.5 7.2v-5.6H12.3v-6.1h13.8v-9.5H1v42.6h11.3V82.6h11.3c-0.3 1.3-0.5 2.7-0.5 4.2c0 8.9 6.8 15.1 15.4 15.1 c7.3 0 12.1-3.4 14.6-9.6h-9.7c-1.3 1.9-2.3 2.4-4.9 2.4c-3 0-5.7-2.7-5.7-5.8h19.7c0.9 7.1 6.3 13.1 13.9 13.1 c3.3 0 6.2-1.6 8.1-4.3h0.1v2.8h10V57.9L74.6 57.9L74.6 57.9z M33.2 82.7c0.6-2.7 2.7-4.5 5.3-4.5c2.9 0 4.9 1.7 5.4 4.5 C43.9 82.7 33.2 82.7 33.2 82.7z M68.6 94c-3.7 0-6-3.4-6-7c0-3.8 2-7.5 6-7.5c4.1 0 5.8 3.7 5.8 7.5C74.3 90.6 72.6 94 68.6 94z"/>
	</symbol>
	<symbol class="i" id="usps" width="100%" height="100%" viewBox="0 0 16 16">
		<path fill="#EE2833" d="M0 5.6h0.9c0.1 0 0.2 0 0.3 0.1c0.1 0 0.2 0.1 0.3 0.2C1.6 5.8 1.6 5.9 1.7 6c0 0.1 0.1 0.2 0.1 0.3v0 c0 0.1 0 0.2-0.1 0.3c0 0.1-0.1 0.2-0.2 0.2C1.4 6.9 1.3 7 1.2 7c-0.1 0-0.2 0-0.3 0H0.5v0.6H0V5.6z M0.9 6.7c0.1 0 0.2 0 0.3-0.1 c0.1-0.1 0.1-0.1 0.1-0.2v0c0-0.1 0-0.2-0.1-0.2C1.1 6 1 6 0.9 6H0.5v0.7H0.9z"/>
		<path fill="#EE2833" d="M2.2 5.6h1c0.3 0 0.5 0.1 0.6 0.2C3.9 5.9 4 6.1 4 6.3v0c0 0.2 0 0.3-0.1 0.4C3.8 6.8 3.7 6.9 3.5 7l0.5 0.8 H3.5L3 7h0H2.7v0.7H2.2V5.6z M3.2 6.6c0.1 0 0.2 0 0.3-0.1c0.1-0.1 0.1-0.1 0.1-0.2v0c0-0.1 0-0.2-0.1-0.2C3.4 6 3.3 6 3.1 6H2.7 v0.6H3.2z"/>
		<rect x="4.6" y="5.6" fill="#EE2833" width="0.5" height="2.1"/>
		<path fill="#EE2833" d="M6.8 7.8c-0.2 0-0.3 0-0.5-0.1C6.2 7.6 6 7.5 5.9 7.4C5.8 7.3 5.8 7.2 5.7 7.1C5.6 6.9 5.6 6.8 5.6 6.7v0 c0-0.2 0-0.3 0.1-0.4C5.8 6.1 5.8 6 5.9 5.9C6 5.8 6.2 5.7 6.3 5.6c0.1-0.1 0.3-0.1 0.5-0.1c0.2 0 0.3 0 0.5 0.1 c0.1 0.1 0.3 0.1 0.4 0.2C7.7 6 7.8 6.1 7.8 6.2c0.1 0.1 0.1 0.3 0.1 0.4v0c0 0.2 0 0.3-0.1 0.4C7.8 7.2 7.7 7.3 7.6 7.4 C7.5 7.5 7.4 7.6 7.2 7.7C7.1 7.7 6.9 7.8 6.8 7.8 M6.8 7.3c0.1 0 0.2 0 0.3-0.1c0.1 0 0.1-0.1 0.2-0.1C7.3 7.1 7.3 7 7.4 6.9 c0-0.1 0-0.2 0-0.3v0c0-0.1 0-0.2 0-0.3c0-0.1-0.1-0.2-0.1-0.2C7.2 6.1 7.1 6.1 7 6C6.9 6 6.8 6 6.8 6C6.7 6 6.6 6 6.5 6 c-0.1 0-0.1 0.1-0.2 0.1C6.2 6.2 6.2 6.3 6.2 6.4c0 0.1 0 0.2 0 0.3v0c0 0.1 0 0.2 0 0.3c0 0.1 0.1 0.2 0.1 0.2 c0.1 0.1 0.1 0.1 0.2 0.1C6.6 7.3 6.7 7.3 6.8 7.3"/>
		<path fill="#EE2833" d="M8.4 5.6h1c0.3 0 0.5 0.1 0.6 0.2c0.1 0.1 0.2 0.3 0.2 0.5v0c0 0.2 0 0.3-0.1 0.4C10 6.8 9.9 6.9 9.8 7 l0.5 0.8H9.8L9.3 7h0H8.9v0.7H8.4V5.6z M9.4 6.6c0.1 0 0.2 0 0.3-0.1c0.1-0.1 0.1-0.1 0.1-0.2v0c0-0.1 0-0.2-0.1-0.2 C9.6 6 9.5 6 9.4 6H8.9v0.6H9.4z"/>
		<rect x="10.8" y="5.6" fill="#EE2833" width="0.5" height="2.1"/>
		<polygon fill="#EE2833" points="12.5 6 11.8 6 11.8 5.6 13.6 5.6 13.6 6 12.9 6 12.9 7.7 12.5 7.7"/>
		<polygon fill="#EE2833" points="14.7 6.9 13.8 5.6 14.4 5.6 14.9 6.4 15.4 5.6 16 5.6 15.1 6.9 15.1 7.7 14.7 7.7"/>
		<polygon fill="#EE2833" points="3.8 8.6 4.2 8.6 4.7 9.3 5.2 8.6 5.6 8.6 5.6 10.3 5.2 10.3 5.2 9.2 4.7 9.9 4.7 9.9 4.2 9.2 4.2 10.3 3.8 10.3"/>
		<path fill="#EE2833" d="M7.2 8.6h0.4l0.8 1.8H7.9L7.8 9.9H7l-0.2 0.4H6.4L7.2 8.6z M7.6 9.6L7.4 9L7.1 9.6H7.6z"/>
		<rect x="9.2" y="8.6" fill="#EE2833" width="0.4" height="1.8"/>
		<polygon fill="#EE2833" points="10.6 8.6 11 8.6 11 10 11.9 10 11.9 10.3 10.6 10.3"/>
		<polygon fill="#EE2833" points="1 9.2 2.5 9.2 1.3 10 1.7 8.6 2.2 10"/>
		<polygon fill="#EE2833" points="13.2 9.2 14.7 9.2 13.5 10 13.9 8.6 14.4 10"/>
	</symbol>
	<symbol class="i" id="mastercard" width="100%" height="100%" viewBox="0 0 198 198">
		<path fill="#fff" d="M14.5 37.5C7 37.5 1 43.5 1 51v96c0 7.5 6 13.5 13.5 13.5h169c7.5 0 13.5-6.1 13.5-13.5V51c0-7.5-6-13.5-13.5-13.5H14.5z"/>
		<path fill="#D9242A" d="M114.4 98.8c0 25.9-21 46.9-46.9 46.9s-46.9-21-46.9-46.9c0-25.9 21-46.9 46.9-46.9C93.4 51.9 114.4 72.9 114.4 98.8"/>
		<path fill="#EFA02E" d="M130.5 51.9c-12.1 0-23.2 4.6-31.5 12.1c-1.7 1.5-3.3 3.2-4.7 5h9.5c1.3 1.6 2.5 3.2 3.6 5H90.7c-1 1.6-1.9 3.3-2.7 5h22c0.8 1.6 1.4 3.3 2 5H86c-0.5 1.6-1 3.3-1.4 5h28.7c0.7 3.2 1.1 6.5 1.1 9.9c0 5.2-0.9 10.2-2.4 14.9H86c0.6 1.7 1.2 3.4 2 5h22c-0.8 1.7-1.7 3.4-2.7 5H90.7c1.1 1.7 2.3 3.4 3.6 5h9.5c-1.5 1.8-3 3.4-4.7 5c8.3 7.5 19.4 12.1 31.5 12.1c25.9 0 46.9-21 46.9-46.9C177.4 72.9 156.4 51.9 130.5 51.9"/>
		<path fill="#010101" d="M56.6 103.9c-0.5-0.1-0.8-0.1-1.1-0.1c-2.9 0-4.3 1-4.3 2.9c0 1.2 0.7 2 1.8 2C55 108.7 56.5 106.8 56.6 103.9L56.6 103.9z M60.3 112.5H56l0.1-2c-1.3 1.6-3 2.3-5.3 2.3c-2.8 0-4.7-2.2-4.7-5.3c0-4.7 3.3-7.5 8.9-7.5c0.6 0 1.3 0.1 2.1 0.1c0.2-0.6 0.2-0.9 0.2-1.3c0-1.3-0.9-1.8-3.3-1.8c-2.5 0-4.5 0.6-5.4 0.9c0.1-0.3 0.7-4.4 0.7-4.4c2.5-0.7 4.2-1 6.1-1c4.4 0 6.7 2 6.7 5.7c0 1-0.2 2.2-0.4 3.8C61.3 105.1 60.4 111.1 60.3 112.5L60.3 112.5z M44 112.5h-5.1l2.9-18.3l-6.5 18.3h-3.5l-0.4-18.2l-3.1 18.2h-4.8l4-23.8h7.3l0.4 13.3l4.5-13.3h8.1L44 112.5 M136.8 103.9c-0.5-0.1-0.8-0.1-1.1-0.1c-2.9 0-4.3 1-4.3 2.9c0 1.2 0.7 2 1.8 2C135.2 108.7 136.7 106.8 136.8 103.9L136.8 103.9z M140.5 112.5h-4.2l0.1-2c-1.3 1.6-3 2.3-5.3 2.3c-2.8 0-4.7-2.2-4.7-5.3c0-4.7 3.3-7.5 8.9-7.5c0.6 0 1.3 0.1 2.1 0.1c0.2-0.6 0.2-0.9 0.2-1.3c0-1.3-0.9-1.8-3.3-1.8c-2.5 0-4.5 0.6-5.4 0.9c0.1-0.3 0.7-4.4 0.7-4.4c2.5-0.7 4.2-1 6.1-1c4.4 0 6.7 2 6.7 5.7c0 1-0.2 2.2-0.4 3.8C141.6 105.1 140.6 111.1 140.5 112.5L140.5 112.5z M82.9 112.2c-1.4 0.4-2.5 0.6-3.7 0.6c-2.6 0-4-1.5-4-4.3c0-0.9 0.4-3.1 0.7-5.2c0.3-1.8 2.2-13.2 2.2-13.2h5.1l-0.6 2.9h3.1l-0.7 4.7h-3.1c-0.6 3.7-1.4 8.3-1.4 8.9c0 1 0.5 1.4 1.7 1.4c0.6 0 1-0.1 1.4-0.2L82.9 112.2 M98.4 112.1c-1.7 0.5-3.4 0.8-5.2 0.8c-5.7 0-8.6-3-8.6-8.6c0-6.6 3.8-11.5 8.9-11.5c4.2 0 6.8 2.7 6.8 7c0 1.4-0.2 2.8-0.6 4.8H89.6c-0.3 2.8 1.5 4 4.4 4c1.8 0 3.4-0.4 5.3-1.2L98.4 112.1L98.4 112.1z M95.6 100.6c0-0.4 0.5-3.5-2.4-3.5c-1.6 0-2.8 1.2-3.2 3.5H95.6L95.6 100.6z M63.3 99.3c0 2.4 1.2 4.1 3.9 5.4c2.1 1 2.4 1.3 2.4 2.1c0 1.2-0.9 1.8-2.9 1.8c-1.5 0-2.9-0.2-4.6-0.8c0 0-0.7 4.3-0.7 4.5c1.2 0.3 2.2 0.5 5.3 0.6c5.4 0 7.9-2 7.9-6.5c0-2.7-1-4.2-3.6-5.4c-2.1-1-2.4-1.2-2.4-2.1c0-1 0.8-1.6 2.5-1.6c1 0 2.4 0.1 3.7 0.3l0.7-4.5c-1.3-0.2-3.3-0.4-4.5-0.4C65.3 92.7 63.3 95.7 63.3 99.3 M123.2 93.3c1.4 0 2.7 0.4 4.6 1.3l0.8-5.2c-0.7-0.3-3.4-2-5.6-2c-3.4 0-6.3 1.7-8.3 4.5c-3-1-4.2 1-5.7 3l-1.3 0.3c0.1-0.6 0.2-1.3 0.2-1.9h-4.7c-0.6 6-1.8 12.1-2.7 18l-0.2 1.3h5.1c0.9-5.5 1.3-9.1 1.6-11.5l1.9-1.1c0.3-1.1 1.2-1.4 3-1.4c-0.2 1.3-0.4 2.6-0.4 4c0 6.3 3.4 10.3 8.9 10.3c1.4 0 2.6-0.2 4.5-0.7l0.9-5.4c-1.7 0.8-3.1 1.2-4.3 1.2c-3 0-4.8-2.2-4.8-5.8C116.7 96.9 119.4 93.3 123.2 93.3"/>
		<path fill="#fff" d="M45.5 111.1h-5.1l2.9-18.3l-6.5 18.3h-3.5l-0.4-18.2l-3.1 18.2h-4.8l4-23.8h7.3l0.2 14.7l4.9-14.7h7.9L45.5 111.1"/>
		<path fill="#010101" d="M166.3 88.7l-1.1 6.9c-1.4-1.8-2.9-3.2-4.9-3.2c-2.6 0-4.9 1.9-6.4 4.8c-2.1-0.4-4.3-1.2-4.3-1.2l0 0c0.2-1.6 0.2-2.6 0.2-2.9h-4.7c-0.6 6-1.8 12.1-2.7 18l-0.2 1.3h5.1c0.7-4.5 1.2-8.2 1.6-11.1c1.7-1.6 2.6-2.9 4.4-2.9c-0.8 1.9-1.2 4.1-1.2 6.3c0 4.8 2.4 8 6.1 8c1.9 0 3.3-0.6 4.7-2.1l-0.2 1.8h4.8l3.9-23.8L166.3 88.7L166.3 88.7z M159.9 108.1c-1.7 0-2.6-1.3-2.6-3.8c0-3.8 1.6-6.5 3.9-6.5c1.7 0 2.7 1.3 2.7 3.8C164 105.4 162.3 108.1 159.9 108.1L159.9 108.1z"/>
		<path fill="#fff" d="M58 102.5c-0.5-0.1-0.8-0.1-1.1-0.1c-2.9 0-4.3 1-4.3 2.9c0 1.2 0.7 2 1.8 2C56.4 107.3 57.9 105.4 58 102.5L58 102.5z M61.7 111.1h-4.2l0.1-2c-1.3 1.6-3 2.3-5.3 2.3c-2.8 0-4.7-2.2-4.7-5.3c0-4.7 3.3-7.5 8.9-7.5c0.6 0 1.3 0.1 2.1 0.1c0.2-0.6 0.2-0.9 0.2-1.3c0-1.3-0.9-1.8-3.3-1.8c-2.5 0-4.5 0.6-5.4 0.9c0.1-0.3 0.7-4.3 0.7-4.3c2.5-0.7 4.2-1 6.1-1c4.4 0 6.7 2 6.7 5.7c0 1-0.2 2.2-0.4 3.8C62.8 103.6 61.8 109.6 61.7 111.1L61.7 111.1z M130 88l-0.8 5.2c-1.8-0.9-3.1-1.3-4.5-1.3c-3.8 0-6.5 3.7-6.5 8.9c0 3.6 1.8 5.8 4.8 5.8c1.3 0 2.6-0.4 4.3-1.2l-0.9 5.4c-1.9 0.5-3.1 0.7-4.5 0.7c-5.5 0-8.9-3.9-8.9-10.3c0-8.5 4.7-14.5 11.5-14.5C126.6 86.7 129.3 87.7 130 88 M138.2 102.5c-0.5-0.1-0.8-0.1-1.1-0.1c-2.9 0-4.3 1-4.3 2.9c0 1.2 0.7 2 1.8 2C136.7 107.3 138.1 105.4 138.2 102.5L138.2 102.5z M141.9 111.1h-4.2l0.1-2c-1.3 1.6-3 2.3-5.3 2.3c-2.8 0-4.7-2.2-4.7-5.3c0-4.7 3.3-7.5 8.9-7.5c0.6 0 1.3 0.1 2.1 0.1c0.2-0.6 0.2-0.9 0.2-1.3c0-1.3-0.9-1.8-3.3-1.8c-2.5 0-4.5 0.6-5.4 0.9c0.1-0.3 0.7-4.3 0.7-4.3c2.5-0.7 4.2-1 6.1-1c4.4 0 6.7 2 6.7 5.7c0 1-0.2 2.2-0.4 3.8C143 103.6 142.1 109.6 141.9 111.1L141.9 111.1z M84.4 110.8c-1.4 0.4-2.5 0.6-3.7 0.6c-2.6 0-4-1.5-4-4.3c0-0.9 0.4-3.1 0.7-5.2c0.3-1.8 2.2-13.2 2.2-13.2h5.1L84 91.8h2.6L86 96.4h-2.6c-0.6 3.7-1.4 8.3-1.4 8.9c0 1 0.5 1.4 1.7 1.4c0.6 0 1-0.1 1.4-0.2L84.4 110.8 M99.9 110.7c-1.7 0.5-3.4 0.8-5.2 0.8c-5.7 0-8.6-3-8.6-8.6c0-6.6 3.8-11.5 8.9-11.5c4.2 0 6.8 2.7 6.8 7c0 1.4-0.2 2.8-0.6 4.8H91c-0.3 2.8 1.5 4 4.4 4c1.8 0 3.4-0.4 5.3-1.2L99.9 110.7L99.9 110.7z M97 99.2c0-0.4 0.5-3.5-2.4-3.5c-1.6 0-2.8 1.2-3.2 3.5H97z M64.8 97.9c0 2.4 1.2 4.1 3.9 5.4c2.1 1 2.4 1.3 2.4 2.1c0 1.2-0.9 1.8-2.9 1.8c-1.5 0-2.9-0.2-4.6-0.8c0 0-0.7 4.3-0.7 4.5c1.2 0.3 2.2 0.5 5.3 0.6c5.4 0 7.9-2 7.9-6.5c0-2.7-1-4.2-3.6-5.4c-2.1-1-2.4-1.2-2.4-2.1c0-1 0.8-1.6 2.5-1.6c1 0 2.4 0.1 3.7 0.3l0.7-4.5c-1.3-0.2-3.3-0.4-4.5-0.4C66.7 91.3 64.8 94.3 64.8 97.9 M168.9 111.1h-4.8l0.2-1.8c-1.4 1.5-2.8 2.1-4.7 2.1c-3.7 0-6.1-3.2-6.1-8c0-6.4 3.8-11.9 8.3-11.9c2 0 3.5 0.8 4.9 2.6l1.1-6.9h5L168.9 111.1L168.9 111.1z M161.4 106.6c2.4 0 4-2.7 4-6.5c0-2.5-0.9-3.8-2.7-3.8c-2.3 0-4 2.7-4 6.5C158.8 105.4 159.6 106.6 161.4 106.6L161.4 106.6z M146.5 91.8c-0.6 6-1.8 12.1-2.7 18l-0.2 1.3h5.1c1.8-11.8 2.3-14.1 5.1-13.9c0.5-2.4 1.3-4.5 1.9-5.6c-2.1-0.4-3.3 0.8-4.9 3.1c0.1-1 0.3-2 0.3-2.9L146.5 91.8 M104.6 91.8c-0.6 6-1.8 12.1-2.7 18l-0.2 1.3h5.1c1.8-11.8 2.3-14.1 5.1-13.9c0.5-2.4 1.3-4.5 1.9-5.6c-2.1-0.4-3.3 0.8-4.9 3.1c0.1-1 0.3-2 0.3-2.9L104.6 91.8 M171.1 109.6c0-0.8 0.7-1.5 1.5-1.5c0.8 0 1.5 0.7 1.5 1.5c0 0.8-0.7 1.5-1.5 1.5C171.8 111.1 171.1 110.4 171.1 109.6z M172.6 110.7c0.6 0 1.2-0.5 1.2-1.2c0-0.6-0.5-1.2-1.2-1.2c-0.6 0-1.2 0.5-1.2 1.2C171.5 110.2 172 110.7 172.6 110.7z M172.4 110.3h-0.3v-1.3h0.6c0.1 0 0.2 0 0.3 0.1c0.1 0.1 0.2 0.2 0.2 0.3c0 0.2-0.1 0.3-0.2 0.3l0.2 0.6h-0.3l-0.2-0.5h-0.2L172.4 110.3L172.4 110.3z M172.4 109.5h0.2c0.1 0 0.1 0 0.2 0c0.1 0 0.1-0.1 0.1-0.2c0 0 0-0.1-0.1-0.1c-0.1 0-0.1 0-0.2 0h-0.2L172.4 109.5L172.4 109.5z"/>
		<path fill="none" stroke="#ABABAB" stroke-width="2" stroke-miterlimit="10" d="M14.5 37.5C7 37.5 1 43.5 1 51v96c0 7.5 6 13.5 13.5 13.5h169c7.5 0 13.5-6.1 13.5-13.5V51c0-7.5-6-13.5-13.5-13.5H14.5z"/>
	</symbol>
	<symbol class="i" id="amex" width="100%" height="100%" viewBox="0 0 198 198">
		<path fill="#415FAB" d="M14.5 37.5C7 37.5 1 43.5 1 51v96c0 7.5 6 13.5 13.5 13.5h169c7.5 0 13.5-6.1 13.5-13.5V51c0-7.5-6-13.5-13.5-13.5H14.5z"/>
		<path fill="#fff" d="M2.2 95.3h9.4l2.1-5.1h4.7l2.1 5.1h18.4v-3.9l1.6 3.9h9.6l1.6-3.9v3.9h45.8l0-8.3h0.9c0.6 0 0.8 0.1 0.8 1.1v7.2h23.7v-1.9c1.9 1 4.9 1.9 8.8 1.9h10l2.1-5.1h4.7l2.1 5.1h19.2v-4.8l2.9 4.8h15.4V63.4h-15.2v3.8l-2.1-3.8H155v3.8l-2-3.8H132c-3.5 0-6.6 0.5-9.1 1.9v-1.9h-14.6v1.9c-1.6-1.4-3.8-1.9-6.2-1.9H48.9l-3.6 8.2l-3.7-8.2H24.9v3.8l-1.8-3.8H8.8L2.2 78.6L2.2 95.3L2.2 95.3z M61.2 90.7h-5.6l0-17.9l-7.9 17.9h-4.8l-8-17.9v17.9H23.8l-2.1-5.1H10.3l-2.1 5.1H2.2L12 67.9h8.1l9.3 21.6V67.9h8.9l7.2 15.5l6.6-15.5h9.1L61.2 90.7L61.2 90.7L61.2 90.7z M19.8 80.9L16 71.8l-3.7 9.1H19.8z M83.6 90.7H65.3V67.9h18.3v4.8H70.8v4.1h12.5v4.7H70.8V86h12.8L83.6 90.7L83.6 90.7z M109.4 74c0 3.6-2.4 5.5-3.9 6.1c1.2 0.5 2.2 1.3 2.7 1.9c0.8 1.1 0.9 2.1 0.9 4.2v4.5h-5.5l0-2.9c0-1.4 0.1-3.3-0.9-4.4c-0.8-0.8-2-1-4-1h-5.9v8.3h-5.5V67.9H100c2.8 0 4.9 0.1 6.6 1.1C108.3 70 109.4 71.5 109.4 74L109.4 74z M102.4 77.4c-0.8 0.5-1.6 0.5-2.7 0.5h-6.7v-5.1h6.7c1 0 2 0 2.6 0.4c0.7 0.3 1.1 1 1.1 2C103.6 76.2 103.2 77 102.4 77.4L102.4 77.4z M118.2 90.7h-5.6V67.9h5.6L118.2 90.7L118.2 90.7z M183 90.7h-7.8l-10.4-17.1v17.1h-11.2l-2.1-5.1h-11.4l-2.1 5.1h-6.4c-2.7 0-6-0.6-7.9-2.5c-1.9-1.9-2.9-4.6-2.9-8.7c0-3.4 0.6-6.5 3-8.9c1.8-1.8 4.5-2.7 8.3-2.7h5.3v4.9h-5.2c-2 0-3.1 0.3-4.2 1.4c-0.9 1-1.6 2.8-1.6 5.2c0 2.4 0.5 4.2 1.5 5.4c0.8 0.9 2.4 1.2 3.8 1.2h2.5l7.7-17.9h8.2l9.3 21.6V67.9h8.3l9.6 15.9V67.9h5.6L183 90.7L183 90.7z M149.7 80.9l-3.8-9.1l-3.8 9.1L149.7 80.9L149.7 80.9z M197 127.1c-1.3 1.9-3.9 2.9-7.4 2.9H179v-4.9h10.5c1 0 1.8-0.1 2.2-0.6c0.4-0.4 0.6-0.9 0.6-1.5c0-0.7-0.3-1.2-0.7-1.5c-0.4-0.3-1-0.5-1.9-0.5c-5.1-0.2-11.6 0.2-11.6-7.1c0-3.3 2.1-6.8 7.9-6.8H197v-4.5h-10.1c-3.1 0-5.3 0.7-6.9 1.9v-1.9h-15c-2.4 0-5.2 0.6-6.5 1.9v-1.9h-26.8v1.9c-2.1-1.5-5.7-1.9-7.4-1.9h-17.7v1.9c-1.7-1.6-5.4-1.9-7.7-1.9H79.2l-4.5 4.9l-4.2-4.9H40.9v31.8h29l4.7-4.9l4.4 5l17.9 0V127h1.8c2.4 0 5.2-0.1 7.6-1.1v8.6h14.7v-8.3h0.7c0.9 0 1 0 1 0.9v7.4h44.7c2.8 0 5.8-0.7 7.5-2v2h14.2c3 0 5.8-0.4 8-1.5L197 127.1L197 127.1z M108.3 114.9c0 6.3-4.7 7.6-9.5 7.6h-6.8v7.7H81.3l-6.7-7.6l-7 7.6H45.8v-22.8h22l6.7 7.5l7-7.5H99C103.4 107.3 108.3 108.5 108.3 114.9z M64.7 125.4H51.3v-4.5h12v-4.7h-12V112H65l6 6.6L64.7 125.4L64.7 125.4z M86.4 128l-8.4-9.3l8.4-9V128L86.4 128z M98.9 117.8h-7.1V112h7.1c2 0 3.3 0.8 3.3 2.8C102.3 116.8 101 117.8 98.9 117.8L98.9 117.8z M135.9 107.3h18.3v4.7h-12.8v4.1h12.5v4.7h-12.5v4.5l12.8 0v4.7h-18.3V107.3L135.9 107.3z M128.9 119.6c1.2 0.4 2.2 1.3 2.7 1.9c0.8 1.1 0.9 2.2 0.9 4.2v4.5H127v-2.9c0-1.4 0.1-3.4-0.9-4.5c-0.8-0.8-2-1-4-1h-5.9v8.3h-5.5v-22.8h12.6c2.8 0 4.8 0.1 6.6 1.1c1.7 1 2.8 2.5 2.8 5.1C132.8 117.1 130.4 119 128.9 119.6L128.9 119.6z M125.8 116.7c-0.7 0.4-1.6 0.5-2.7 0.5h-6.7V112h6.7c1 0 2 0 2.6 0.4c0.7 0.4 1.1 1.1 1.1 2.1C126.9 115.5 126.5 116.2 125.8 116.7L125.8 116.7z M175.3 118.1c1.1 1.1 1.6 2.5 1.6 4.8c0 4.9-3.1 7.2-8.6 7.2h-10.7v-4.9h10.6c1 0 1.8-0.1 2.2-0.6c0.4-0.4 0.6-0.9 0.6-1.5c0-0.7-0.3-1.2-0.7-1.5c-0.4-0.3-1-0.5-2-0.5c-5.1-0.2-11.5 0.2-11.5-7.1c0-3.3 2.1-6.8 7.8-6.8h11v4.9h-10c-1 0-1.6 0-2.2 0.4c-0.6 0.4-0.8 0.9-0.8 1.6c0 0.9 0.5 1.4 1.2 1.7c0.6 0.2 1.2 0.3 2.1 0.3l2.9 0.1C172 116.4 174 116.9 175.3 118.1L175.3 118.1z M197 112h-10c-1 0-1.7 0-2.2 0.4c-0.6 0.4-0.8 0.9-0.8 1.6c0 0.9 0.5 1.4 1.2 1.7c0.6 0.2 1.2 0.3 2.1 0.3l3 0.1c3 0.1 5 0.6 6.2 1.8c0.2 0.2 0.4 0.4 0.5 0.6L197 112L197 112z"/>
		<path fill="none" stroke="#ABABAB" stroke-width="2" stroke-miterlimit="10" d="M14.5 37.5C7 37.5 1 43.5 1 51v96c0 7.5 6 13.5 13.5 13.5h169c7.5 0 13.5-6.1 13.5-13.5V51c0-7.5-6-13.5-13.5-13.5H14.5z"/>
	</symbol>
	<symbol class="i" id="visa" width="100%" height="100%" viewBox="0 0 198 198">
		<path fill="#fff" d="M14.5 37.5C7 37.5 1 43.5 1 51v96c0 7.5 6 13.5 13.5 13.5h169c7.5 0 13.5-6.1 13.5-13.5V51c0-7.5-6-13.5-13.5-13.5H14.5z"/>
		<path fill="#194993" d="M69.5 124.6l8.7-51.2h13.9l-8.7 51.2H69.5z M133.8 74.5c-2.8-1-7.1-2.1-12.5-2.1c-13.8 0-23.5 6.9-23.6 16.9c-0.1 7.4 6.9 11.5 12.2 13.9c5.4 2.5 7.3 4.1 7.2 6.3c0 3.4-4.3 5-8.3 5c-5.6 0-8.5-0.8-13.1-2.7l-1.8-0.8l-2 11.5c3.3 1.4 9.3 2.7 15.5 2.7c14.7 0 24.2-6.9 24.3-17.5c0.1-5.8-3.7-10.2-11.7-13.9c-4.9-2.4-7.9-3.9-7.8-6.3c0-2.1 2.5-4.4 8-4.4c4.6-0.1 7.9 0.9 10.4 2l1.2 0.6L133.8 74.5 M169.7 73.4h-10.8c-3.3 0-5.8 0.9-7.3 4.2l-20.7 46.9h14.6c0 0 2.4-6.3 2.9-7.7c1.6 0 15.8 0 17.9 0c0.4 1.8 1.7 7.7 1.7 7.7H181L169.7 73.4L169.7 73.4z M152.6 106.4c1.2-2.9 5.6-14.3 5.6-14.3c-0.1 0.1 1.1-3 1.8-4.9l0.9 4.4c0 0 2.7 12.2 3.2 14.8L152.6 106.4L152.6 106.4z M57.7 73.4L44 108.3l-1.5-7.1C40 93 32.1 84.2 23.2 79.7l12.5 44.7l14.8 0l22-51.1L57.7 73.4"/>
		<path fill="#F1AE1D" d="M35.5 73.4H13l-0.2 1.1c17.5 4.2 29.1 14.5 33.9 26.8l-4.9-23.5C40.9 74.5 38.5 73.5 35.5 73.4"/>
		<path fill="none" stroke="#ABABAB" stroke-width="2" stroke-miterlimit="10" d="M14.5 37.5C7 37.5 1 43.5 1 51v96c0 7.5 6 13.5 13.5 13.5h169c7.5 0 13.5-6.1 13.5-13.5V51c0-7.5-6-13.5-13.5-13.5H14.5z"/>
	</symbol>
	<symbol class="i" id="discover" width="100%" height="100%" viewBox="0 0 198 198">
		<path fill="#fff" d="M14.5 37.5C7 37.5 1 43.5 1 51v96c0 7.5 6 13.5 13.5 13.5h169c7.5 0 13.5-6.1 13.5-13.5V51c0-7.5-6-13.5-13.5-13.5H14.5z"/>
		<path fill="#F37422" d="M105.2 77.1c-7.6 0-13.8 5.8-13.8 12.9v0c0 7.2 6.2 13 13.8 13S119 97.2 119 90v0C119 82.8 112.8 77.1 105.2 77.1z M113.8 90c0 4.4-3.8 8.1-8.6 8.1c-4.7 0-8.6-3.6-8.6-8.1v0c0-4.4 3.8-8 8.6-8h0C109.9 82 113.8 85.6 113.8 90L113.8 90z"/>
		<path fill="#4E4E4E" d="M83.6 77.2c2.2 0 4 0.4 6.2 1.5v5.6c-2.1-1.9-3.9-2.7-6.3-2.7c-4.7 0-8.5 3.7-8.5 8.4c0 4.9 3.6 8.4 8.7 8.4c2.3 0 4.1-0.8 6.1-2.7v5.6c-2.3 1-4.2 1.4-6.3 1.4c-7.7 0-13.7-5.6-13.7-12.7C69.8 82.9 75.9 77.2 83.6 77.2L83.6 77.2z M59.7 77.4c2.8 0 5.4 0.9 7.6 2.7l-2.6 3.3c-1.3-1.4-2.6-2-4.1-2c-2.2 0-3.8 1.2-3.8 2.7c0 1.3 0.9 2 3.9 3.1c5.7 2 7.4 3.7 7.4 7.6c0 4.7-3.7 8-8.9 8c-3.8 0-6.6-1.4-9-4.6l3.3-3c1.2 2.1 3.1 3.2 5.5 3.2c2.3 0 3.9-1.5 3.9-3.4c0-1-0.5-1.9-1.5-2.5C61 92.1 60 91.7 58 91c-4.7-1.6-6.4-3.3-6.4-6.7C51.7 80.4 55.2 77.4 59.7 77.4L59.7 77.4z M117.4 77.8h5.5l6.9 16.4l7-16.4h5.5l-11.2 25h-2.7L117.4 77.8L117.4 77.8z M19.8 77.8h7.4c8.2 0 13.9 5 13.9 12.2c0 3.6-1.7 7-4.7 9.3c-2.5 1.9-5.3 2.8-9.2 2.8h-7.4L19.8 77.8L19.8 77.8z M43.4 77.8h5v24.4h-5V77.8z M144.5 77.8h14.3V82h-9.3v5.4h8.9v4.1h-8.9v6.6h9.3v4.1h-14.3L144.5 77.8L144.5 77.8z M162.2 77.8h7.5c5.8 0 9.2 2.6 9.2 7.2c0 3.7-2.1 6.2-5.9 6.9l8.1 10.3h-6.2l-7-9.8h-0.7v9.8h-5V77.8z M167.2 81.7V89h1.5c3.2 0 4.9-1.3 4.9-3.8c0-2.4-1.7-3.6-4.9-3.6L167.2 81.7L167.2 81.7z M24.8 82v16.1h1.4c3.3 0 5.3-0.6 6.9-1.9c1.7-1.5 2.8-3.8 2.8-6.1c0-2.3-1-4.6-2.8-6.1c-1.7-1.4-3.6-2-6.9-2L24.8 82L24.8 82z"/>
		<path fill="#F37321" d="M197 108.3c-6.4 4.5-58.7 36.7-141.6 52.2h128.1c7.5 0 13.5-6.1 13.5-13.5V108.3z"/>
		<path fill="none" stroke="#ABABAB" stroke-width="2" stroke-miterlimit="10" d="M14.5 37.5C7 37.5 1 43.5 1 51v96c0 7.5 6 13.5 13.5 13.5h169c7.5 0 13.5-6.1 13.5-13.5V51c0-7.5-6-13.5-13.5-13.5H14.5z"/>
	</symbol>
	<symbol class="i" id="amazon" width="100%" height="100%" viewBox="0 0 198 198">
		<path d="M14.5 37.5C7 37.5 1 43.5 1 51v96c0 7.5 6 13.5 13.5 13.5h169c7.5 0 13.5-6.1 13.5-13.5V51c0-7.5-6-13.5-13.5-13.5H14.5z"/>
		<g fill="#F8991D">
			<path d="M117.2 93.9c1.4-1.1 0.2-2.6-1.2-2c-9.6 4.1-20.1 6.1-29.6 6.1c-14.1 0-27.7-3.9-38.8-10.3c-1-0.6-1.7 0.4-0.9 1.2C57 98 70.5 103.6 85.5 103.6C96.2 103.6 108.6 100.2 117.2 93.9L117.2 93.9z"/>
			<path d="M110.6 88.3c-0.8 0.5-0.6 1.3 0.2 1.2c2.8-0.3 8.9-1.1 10 0.3c1.1 1.4-1.2 7.2-2.3 9.8c-0.3 0.8 0.4 1.1 1.1 0.5c4.6-3.8 5.8-11.9 4.9-13.1C123.5 85.8 115.5 84.9 110.6 88.3z"/>
		</g>
		<g fill="#F8991D">
			<path d="M16.3 115.2c2.5-0.6 5.8-0.9 9.2 0c5.1 1.3 7 4.5 7 11.2c0 7.9-4 11.7-9.1 11.7c-2.6 0-3.7 0-5.7-0.5v2.6l0 8.4h-3.4l0.1-25.3c0-2.8 0-5.5-0.1-7.6 M17.6 134.1c1.1 0.7 2.9 1 5.1 0.9c4.2-0.4 6.6-3.4 6.6-8.4c0-4.4-2.3-8.6-6.5-8.9c-2-0.1-4.2 0.3-4.8 0.4c-0.2 0-0.5 0.5-0.5 0.7C17.4 120.9 17.5 133.6 17.6 134.1z"/>
			<path d="M49.1 137.5l-0.2-1.9l0 0c-1.2 1.7-3.8 2.4-6.9 2.4c-4.4 0-7-3.3-7-6.4c0-7 5-8 13.4-8v-0.5c0.1-2.9-0.1-5.9-4.6-5.9c-2 0-4.8 1-6.3 2l-1.4-2.5c1.8-1.2 5.3-2.5 8-2.5c6.7 0 8.2 5.5 8.2 9.9v8.2c0 1.9 0.1 3.7 0.4 5.2H49.1z M48.5 126.6c-6.8 0-10.1 0.5-10.1 4.8c0 2.6 2.6 3.7 4.6 3.7c2.1 0 4.6-1.8 5.3-3.7c0.1-0.4 0.2-0.9 0.2-1.3V126.6z"/>
			<path d="M56.9 114.6l5.8 13.7c0.5 1.4 1.2 2.8 1.5 4.1l-0.2 0.6c0.4-1.3 0.9-3 1.4-4.6l4.7-13.9H74l-5.8 17c-2.1 5.4-3.3 12.3-7.2 15.6c-2 1.7-7.4 1.6-8.8 0.9l0.5-3.3c2.8 0.8 5.1 1.1 7.3-1.1c1-1 1.8-2.8 2.2-5.1c0.2-0.4 0.1-1.6 0.1-1.8c0-0.2-0.3-1.5-0.5-2L53 114.6H56.9z"/>
			<path d="M76.2 121.6c0-2.3 0-5-0.2-6.8l3.4-0.2l0.1 2.1l0.1 0.6c1.2-2.1 3.5-3.3 7.2-3.3c3 0 4.5 1.2 5.7 3.5l0.2 0c1.2-1 1.7-1.2 2.6-1.9c1.3-1 4.2-1.6 6.5-1.2c2.9 0.4 6.1 2.8 6.1 10.4v12.8h-4l0-12.5c0.1-4.5 0.2-7.9-4.5-7.3c-2.2 0.3-4 0.9-5.3 4.3c-0.2 0.5-0.3 1.3-0.3 2v13.5h-3.9v-13.1c0.3-5.6-1.6-6.7-4.3-6.6c-2.5 0.1-5.6 2-5.5 4.3c-0.1 0.9-0.1 1.5-0.1 2.2v13.2h-3.9V121.6z"/>
			<path d="M114.7 126.6c0.1 5.4 3.5 8.3 7.4 8.3c2.8 0 3.7-0.8 5.2-1.4l1 2.8c-1.4 0.6-3.3 1.7-6.8 1.7c-6.7 0-10.7-4.4-10.7-11c0-8 3.7-12.7 10.1-12.7c6.4 0 7.6 7.5 7.6 10.7c0 0.8 0 1.2-0.1 1.7H114.7z M125.1 123.7c0-2.5-0.9-6.3-4.9-6.3c-4 0-5.2 3.5-5.5 6.3H125.1z"/>
			<path d="M132.6 122.2c0-2.3 0.1-5.6 0-7.4h3.1l0.3 2l0 0c1.8-1.7 3.9-2.8 7.5-2.8c4.5 0 6.9 2.6 6.9 10.8v13h-4l0.2-12.7c0-3.5-0.1-7.3-4.6-7.1c-2.6 0.2-5 2.2-5.7 4.5c-0.2 0.5-0.2 1.4-0.2 2.1l-0.1 13.2h-3.6V122.2z"/>
			<path d="M160.1 108.9v5.8h6.1l-0.8 3h-5.3v12.8c0 2.7 0.8 4.2 3 4.2c1 0 1.9-0.9 2.4-1l1.1 2.4c-0.8 0.3-2.3 1.8-4.6 1.8c-1.9 0-3.3-0.6-4.3-1.7c-1.1-1.2-1.5-3.1-1.5-5.7v-12.9h-3.4v-3h3.4v-4.8L160.1 108.9z"/>
			<path d="M170.1 133.4c1.2 0.8 3.6 1.6 5.6 1.6c2.9 0 4.2-1.4 4.2-3.2c0-1.9-1.1-2.9-4.1-4c-3.9-1.4-6.4-4.1-6.4-6.8	c0-3.5 2-7.1 8.1-6.7c2.2 0.1 4.2 0.6 5.4 1.4l-1 2.9c-0.9-0.5-2.4-1.3-4.5-1.3c-2.3 0-4.4 0.6-4.4 3.1c-0.1 2.5 2.1 3.5 4.9 4.5	c3.8 1.4 5.7 3.3 5.7 6.6c0 3.8-3 6.5-8.2 6.5c-2.4 0-5.4-1.1-7-2L170.1 133.4z"/>
		</g>
		<path fill="#fff" d="M47.2 80.6c0.3 0.4 0.4 0.9 0 1.2c-0.9 0.8-2.6 2.2-3.5 3l0 0c-0.3 0.3-0.7 0.3-1.1 0.1c-1.5-1.3-1.8-1.8-2.6-3c-2.5 2.6-4.3 3.3-7.5 3.3c-3.8 0-6.8-2.4-6.8-7.1c0-3.7 2-6.2 4.9-7.5c2.5-1.1 5.9-1.3 8.6-1.6v-0.6c0-1.1 0.1-2.4-0.6-3.3c-0.6-0.8-1.6-1.2-2.6-1.2c-1.7 0-3.3 0.9-3.7 2.7c-0.1 0.4-0.4 0.8-0.8 0.8L27.1 67c-0.4-0.1-0.8-0.4-0.7-1c1-5.4 5.9-7 10.2-7c2.2 0 5.1 0.6 6.9 2.3c2.2 2.1 2 4.8 2 7.9v7.1C45.5 78.5 46.4 79.4 47.2 80.6L47.2 80.6z M39.1 72.7c-3.3 0-6.8 0.7-6.8 4.6c0 2 1 3.3 2.8 3.3c1.3 0 2.4-0.8 3.2-2.1c0.9-1.6 0.9-3.1 0.9-4.8V72.7z M50.8 84.1c0 0.4 0.4 0.7 0.8 0.8h4.6c0.5 0 0.9-0.4 0.9-0.8V71.6c0-2.7-0.1-6.5 3.1-6.5c3.2 0 2.8 3.8 2.8 6.5V84c0 0.5 0.4 0.8 0.8 0.8h4.6c0.5 0 0.9-0.4 0.9-0.8V71.6c0-1.3 0-3.3 0.4-4.5c0.5-1.2 1.6-1.9 2.7-1.9c1.3 0 2.3 0.4 2.7 2c0.2 0.9 0.1 3.4 0.1 4.4V84c0 0.5 0.4 0.8 0.8 0.8h4.6c0.5 0 0.9-0.4 0.9-0.8l0-14.8c0-2.5 0.3-5.4-1.1-7.4c-1.3-1.8-3.4-2.6-5.3-2.6c-2.7 0-5.2 1.4-6.3 4.3c-1.3-3-3.1-4.3-5.9-4.3c-2.8 0-4.9 1.4-6 4.3h-0.1v-3.1c0-0.4-0.4-0.8-0.8-0.8h-4.3c-0.5 0-0.9 0.4-0.9 0.8L50.8 84.1L50.8 84.1z M128.2 79.8c-0.1-0.5-0.2-1-0.8-1.3c-2.6-1.5-5.7-1.9-8.6-1.8l7.8-11.1c0.7-1 1.1-1.6 1.1-2.1v-2.9c0-0.5-0.4-0.8-0.9-0.8h-15c-0.5 0-0.8 0.3-0.8 0.8v3.4c0 0.5 0.4 0.8 0.9 0.8h7.8l-9 12.9c-0.5 0.8-0.6 1.8-0.6 2.3v3.4c0 0.5 0.6 1.1 1.1 0.8c5.1-2.7 11.2-2.4 15.9 0c0.6 0.3 1.1-0.3 1.1-0.8V79.8L128.2 79.8z M99 69L99 69l0-0.6c0-1.1 0.1-2.4-0.6-3.3c-0.5-0.8-1.6-1.2-2.6-1.2c-1.7 0-3.3 0.9-3.7 2.7c-0.1 0.4-0.4 0.8-0.8 0.8L87 67c-0.4-0.1-0.8-0.4-0.7-1c1-5.4 5.9-7 10.2-7c2.2 0 5.1 0.6 6.9 2.3c2.2 2.1 2 4.8 2 7.9v7.1c0 2.1 0.9 3.1 1.7 4.2c0.3 0.4 0.4 0.9 0 1.2c-0.9 0.8-2.6 2.2-3.5 3l0 0c-0.3 0.3-0.7 0.3-1.1 0.1c-1.5-1.3-1.8-1.8-2.6-3c-2.5 2.6-4.3 3.3-7.5 3.3c-3.8 0-6.8-2.4-6.8-7.1c0-3.7 2-6.2 4.9-7.5C92.9 69.5 96.3 69.3 99 69L99 69z M99 73.7v-1c-3.3 0-6.8 0.7-6.8 4.6c0 2 1 3.3 2.8 3.3c1.3 0 2.4-0.8 3.1-2.1C99 76.9 99 75.4 99 73.7L99 73.7z M140.6 59.3c6.8 0 10.5 5.8 10.5 13.2c0 7.2-4.1 12.8-10.5 12.8c-6.7 0-10.3-5.8-10.3-13.1C130.3 65 134 59.3 140.6 59.3L140.6 59.3z M140.6 80.5c3.5 0 3.7-4.9 3.7-7.9c0-2-0.1-4.3-0.7-6.2c-0.5-1.6-1.5-2.3-3-2.3c-3.4 0-3.6 4.6-3.6 7.4C137.1 74.4 137 80.5 140.6 80.5L140.6 80.5z M172.1 62.1c-1.3-2-3.3-2.8-5.3-2.8c-3.2 0-5 1.5-6.2 4.7h-0.1v-3.6c-0.1-0.4-0.4-0.6-0.8-0.7h-4.2c-0.5 0-0.8 0.3-0.9 0.8l0 23.5c0 0.5 0.4 0.8 0.8 0.9h4.5c0.5 0 0.9-0.4 0.9-0.9V71.4c0-1.6 0.1-3 0.7-4.4c0.5-1.1 1.5-1.9 2.6-1.9c3.1 0 2.8 3.8 2.8 6.3v12.7c0 0.4 0.4 0.7 0.8 0.7h4.6c0.5 0 0.8-0.3 0.9-0.7V69.4C173.3 67.1 173.3 63.9 172.1 62.1L172.1 62.1z"/>
		<path fill="none" stroke="#ABABAB" stroke-width="2" stroke-miterlimit="10" d="M14.5 37.5C7 37.5 1 43.5 1 51v96c0 7.5 6 13.5 13.5 13.5h169c7.5 0 13.5-6.1 13.5-13.5V51c0-7.5-6-13.5-13.5-13.5H14.5z"/>
	</symbol>
	<symbol class="i" id="cvvFront" width="100%" height="100%" viewBox="0 0 16 16">
		<path fill="#405EAB" d="M0.9 2.8H15c0.5 0 0.8 0.4 0.8 0.8v8.2c0 0.5-0.4 0.8-0.8 0.8H0.9c-0.5 0-0.8-0.4-0.8-0.8V3.6 C0.1 3.1 0.5 2.8 0.9 2.8z"/>
		<path fill="none" stroke="#ABABAB" stroke-width="0.25" stroke-miterlimit="10" d="M1.2 2.8c-0.6 0-1.1 0.5-1.1 1.1v7.7c0 0.6 0.5 1.1 1.1 1.1h13.6c0.6 0 1.1-0.5 1.1-1.1V3.9 c0-0.6-0.5-1.1-1.1-1.1H1.2z"/>
		<path fill="#fff" d="M14.1 11.3H5V6.6h9V11.3z M13.6 7.1H5.5v3.8h8.1V7.1z"/>
		<path fill="#fff" d="M6.8 8.5L6.8 8.5L6.4 8.7L6.4 8.3l0.5-0.2h0.4v2H6.8V8.5z"/>
		<path fill="#fff" d="M7.8 10.1V9.8L8 9.6c0.4-0.4 0.6-0.6 0.7-0.8c0-0.2-0.1-0.3-0.3-0.3C8.2 8.4 8 8.5 7.9 8.6L7.8 8.3 c0.2-0.1 0.4-0.2 0.7-0.2c0.5 0 0.7 0.3 0.7 0.6c0 0.3-0.2 0.6-0.5 0.9L8.4 9.7v0h0.8v0.4H7.8z"/>
		<path fill="#fff" d="M9.7 9.6c0.1 0 0.3 0.1 0.5 0.1c0.2 0 0.4-0.1 0.4-0.3c0-0.2-0.2-0.3-0.4-0.3H9.9V8.9h0.2 c0.2 0 0.4-0.1 0.4-0.2c0-0.1-0.1-0.2-0.3-0.2c-0.2 0-0.3 0.1-0.4 0.1L9.7 8.2c0.1-0.1 0.4-0.2 0.6-0.2c0.4 0 0.7 0.2 0.7 0.5 c0 0.2-0.1 0.4-0.4 0.5v0c0.2 0 0.4 0.2 0.4 0.5c0 0.4-0.3 0.6-0.8 0.6c-0.3 0-0.5-0.1-0.6-0.1L9.7 9.6z"/>
		<path fill="#fff" d="M12.2 10.1V9.6h-0.9V9.3L12 8.1h0.6v1.2h0.2v0.3h-0.2v0.5H12.2z M12.2 9.3V8.8c0-0.1 0-0.2 0-0.4h0 c-0.1 0.1-0.1 0.2-0.2 0.4l-0.3 0.4v0H12.2z"/>
		<path fill="#fff" d="M4.2 6.3H2.1C2 6.3 1.9 6.1 1.9 6V4.8c0-0.1 0.1-0.3 0.2-0.3h2.1c0.1 0 0.3 0.1 0.3 0.3V6 C4.5 6.1 4.4 6.3 4.2 6.3z"/>
	</symbol>
	<symbol class="i" id="cvvBack" width="100%" height="100%" viewBox="0 0 16 16">
		<path fill="#fff" d="M0.9 2.8H15c0.5 0 0.8 0.4 0.8 0.8v8.2c0 0.5-0.4 0.8-0.8 0.8H0.9c-0.5 0-0.8-0.4-0.8-0.8V3.6 C0.1 3.1 0.5 2.8 0.9 2.8z"/>
		<path fill="#DB1F26" d="M14.1 11.3H6.4V6.6h7.7V11.3z M13.6 7.1H6.8v3.8h6.9V7.1z"/>
		<path fill="#343333" d="M8.3 8.5L8.3 8.5L7.9 8.7L7.8 8.3l0.5-0.2h0.4v2H8.3V8.5z"/>
		<path fill="#343333" d="M9.2 10.1V9.8l0.3-0.2c0.4-0.4 0.6-0.6 0.7-0.8c0-0.2-0.1-0.3-0.3-0.3c-0.2 0-0.3 0.1-0.4 0.2L9.2 8.3 c0.2-0.1 0.4-0.2 0.7-0.2c0.5 0 0.7 0.3 0.7 0.6c0 0.3-0.2 0.6-0.5 0.9L9.9 9.7v0h0.8v0.4H9.2z"/>
		<path fill="#343333" d="M11.2 9.6c0.1 0 0.3 0.1 0.5 0.1c0.2 0 0.4-0.1 0.4-0.3c0-0.2-0.2-0.3-0.4-0.3h-0.2V8.9h0.2 	c0.2 0 0.4-0.1 0.4-0.2c0-0.1-0.1-0.2-0.3-0.2c-0.2 0-0.3 0.1-0.4 0.1l-0.1-0.3c0.1-0.1 0.4-0.2 0.6-0.2c0.4 0 0.7 0.2 0.7 0.5 c0 0.2-0.1 0.4-0.4 0.5v0c0.2 0 0.4 0.2 0.4 0.5c0 0.4-0.3 0.6-0.8 0.6c-0.3 0-0.5-0.1-0.6-0.1L11.2 9.6z"/>
		<rect x="0.1" y="4.5" fill="#122824" width="15.8" height="1.4"/>
		<path fill="none" stroke="#ABABAB" stroke-width="0.25" stroke-miterlimit="10" d="M1.2 2.8c-0.6 0-1.1 0.5-1.1 1.1v7.7c0 0.6 0.5 1.1 1.1 1.1h13.6c0.6 0 1.1-0.5 1.1-1.1V3.9 c0-0.6-0.5-1.1-1.1-1.1H1.2z"/>
	</symbol>
	<symbol class="i" id="mobileNav" width="100%" height="100%" viewBox="0 0 16 16">
		<rect x="0" y="0.3" width="16" height="2.8"/>
		<rect x="0" y="5.7" width="16" height="2.8"/>
		<rect x="0" y="11" width="16" height="2.8"/>
	</symbol>
	<symbol class="i" id="phoneFilled" width="100%" height="100%" viewBox="0 0 70 70">
		<path class="t" d="M35.271 55.102 C34.584 55.102 33.994 54.857 33.505 54.367 C33.015 53.878 32.770 53.289 32.770 52.602 C32.770 51.914 33.015 51.326 33.505 50.836 C33.994 50.347 34.584 50.102 35.271 50.102 C35.959 50.102 36.548 50.347 37.038 50.836 C37.527 51.326 37.773 51.914 37.773 52.602 C37.773 53.289 37.527 53.878 37.038 54.367 C36.548 54.857 35.959 55.102 35.271 55.102 ZM43.979 48.305 C43.780 48.503 43.546 48.602 43.275 48.602 L27.268 48.602 C26.996 48.602 26.762 48.503 26.564 48.305 C26.366 48.107 26.267 47.873 26.267 47.602 L26.267 25.602 C26.267 25.331 26.366 25.097 26.564 24.898 C26.762 24.701 26.996 24.602 27.268 24.602 L43.275 24.602 C43.546 24.602 43.780 24.701 43.979 24.898 C44.177 25.097 44.276 25.331 44.276 25.602 L44.276 47.602 C44.276 47.873 44.177 48.107 43.979 48.305 ZM37.773 21.602 L32.770 21.602 C32.437 21.602 32.270 21.435 32.270 21.102 C32.270 20.769 32.437 20.602 32.770 20.602 L37.773 20.602 C38.106 20.602 38.273 20.769 38.273 21.102 C38.273 21.435 38.106 21.602 37.773 21.602 L37.773 21.602 ZM46.089 17.789 C45.297 16.998 44.359 16.602 43.275 16.602 L27.268 16.602 C26.184 16.602 25.246 16.998 24.454 17.789 C23.661 18.581 23.266 19.519 23.266 20.602 L23.266 52.602 C23.266 53.685 23.661 54.623 24.454 55.414 C25.246 56.206 26.184 56.602 27.268 56.602 L43.275 56.602 C44.359 56.602 45.297 56.206 46.089 55.414 C46.881 54.623 47.277 53.685 47.277 52.602 L47.277 20.602 C47.277 19.519 46.881 18.581 46.089 17.789 Z"/>
	</symbol>
	<symbol class="i" id="wirelessTower" width="100%" height="100%" viewBox="0 0 70 70">
		<circle class="t" cx="35" cy="25.062" r="4"/>
		<path class="stroke1" d="M27.16 32.165c-3.894-3.958-3.843-10.312 0.115-14.206"/>
		<path class="stroke1" d="M22.467 36.051c-6.024-6.123-5.945-15.953 0.178-21.977"/>
		<path class="stroke1" d="M42.84 32.165c3.894-3.958 3.843-10.312-0.115-14.206"/>
		<path class="stroke1" d="M47.533 36.051c6.024-6.123 5.945-15.953-0.178-21.977"/>
		<polyline class="stroke1" points="29.105 43.75 40.924 43.75 43.974 51.238 26.008 51.238 24.054 55.927 35 29.384 45.946 55.927"/>
	</symbol>
	<symbol class="i" id="envelope" width="100%" height="100%" viewBox="0 0 100 100">
		<path class="t" d="M73.707 67.694 C73.509 67.893 73.274 67.991 73.004 67.991 L27.004 67.991 C26.733 67.991 26.499 67.893 26.301 67.694 C26.103 67.497 26.004 67.262 26.004 66.991 L26.004 42.991 C26.670 43.741 27.389 44.429 28.160 45.054 C33.743 49.346 38.181 52.866 41.473 55.616 C42.535 56.512 43.399 57.210 44.066 57.710 C44.733 58.210 45.634 58.715 46.770 59.226 C47.905 59.736 48.973 59.991 49.973 59.991 L50.004 59.991 L50.035 59.991 C51.035 59.991 52.103 59.736 53.238 59.226 C54.374 58.715 55.274 58.210 55.941 57.710 C56.608 57.210 57.473 56.512 58.535 55.616 C61.827 52.866 66.264 49.346 71.848 45.054 C72.618 44.429 73.337 43.741 74.004 42.991 L74.004 66.991 C74.004 67.262 73.905 67.497 73.707 67.694 ZM72.551 38.257 C71.582 39.768 70.535 40.971 69.410 41.866 C65.389 45.033 61.212 48.335 56.879 51.772 C56.754 51.877 56.389 52.184 55.785 52.694 C55.181 53.205 54.702 53.596 54.348 53.866 C53.993 54.137 53.530 54.465 52.957 54.851 C52.384 55.236 51.858 55.522 51.379 55.710 C50.899 55.897 50.452 55.991 50.035 55.991 L50.004 55.991 L49.973 55.991 C49.556 55.991 49.108 55.897 48.629 55.710 C48.149 55.522 47.624 55.236 47.051 54.851 C46.478 54.465 46.014 54.137 45.660 53.866 C45.306 53.596 44.827 53.205 44.223 52.694 C43.618 52.184 43.254 51.877 43.129 51.772 C38.795 48.335 34.618 45.033 30.598 41.866 C27.535 39.450 26.004 36.491 26.004 32.991 C26.004 32.721 26.103 32.486 26.301 32.288 C26.499 32.090 26.733 31.991 27.004 31.991 L73.004 31.991 C73.170 31.991 73.316 32.018 73.441 32.069 C73.566 32.122 73.660 32.200 73.723 32.304 C73.785 32.408 73.842 32.502 73.895 32.585 C73.946 32.669 73.978 32.799 73.988 32.976 C73.999 33.153 74.004 33.288 74.004 33.382 C74.004 33.476 74.004 33.616 74.004 33.804 C74.004 33.991 74.004 34.106 74.004 34.147 C74.004 35.377 73.520 36.747 72.551 38.257 ZM76.535 29.460 C75.556 28.481 74.379 27.991 73.004 27.991 L27.004 27.991 C25.629 27.991 24.452 28.481 23.473 29.460 C22.493 30.439 22.004 31.616 22.004 32.991 L22.004 66.991 C22.004 68.366 22.493 69.543 23.473 70.522 C24.452 71.501 25.629 71.991 27.004 71.991 L73.004 71.991 C74.379 71.991 75.556 71.501 76.535 70.522 C77.514 69.543 78.004 68.366 78.004 66.991 L78.004 32.991 C78.004 31.616 77.514 30.439 76.535 29.460 Z"/>
	</symbol>
	<symbol class="i" id="briefcase" width="100%" height="100%" viewBox="0 0 16 16">
		<path d="M10 9.9c0 0.2-0.1 0.3-0.2 0.4c-0.1 0.1-0.2 0.2-0.4 0.2H6.6c-0.2 0-0.3-0.1-0.4-0.2C6.1 10.1 6 10 6 9.9V8.4H0v4.3 c0 0.4 0.1 0.7 0.4 1s0.6 0.4 1 0.4h13.1c0.4 0 0.7-0.1 1-0.4c0.3-0.3 0.4-0.6 0.4-1V8.4h-6V9.9z M10 9.9"/>
		<rect x="6.9" y="8.4" width="2.3" height="1.1"/>
		<path d="M15.5 3.2c-0.3-0.3-0.6-0.4-1-0.4h-3.1V1.3c0-0.2-0.1-0.4-0.2-0.6c-0.2-0.2-0.4-0.2-0.6-0.2H5.4C5.2 0.5 5 0.6 4.8 0.7 C4.7 0.9 4.6 1.1 4.6 1.3v1.4H1.5c-0.4 0-0.7 0.1-1 0.4C0.2 3.5 0 3.8 0 4.2v3.4h15.9V4.2C15.9 3.8 15.8 3.5 15.5 3.2L15.5 3.2z M10.3 2.8H5.7V1.6h4.5V2.8z M10.3 2.8"/>
	</symbol>
	<symbol class="i" id="user" width="100%" height="100%" viewBox="0 0 16 16">
		<path d="M8 8c1.1 0 2-0.4 2.8-1.2C11.6 6.1 12 5.1 12 4c0-1.1-0.4-2-1.2-2.8C10 0.5 9.1 0.1 8 0.1S6 0.5 5.2 1.2C4.4 2 4 2.9 4 4 c0 1.1 0.4 2 1.2 2.8C6 7.6 6.9 8 8 8L8 8z M8 8"/>
		<path d="M15.2 12.2c0-0.3-0.1-0.7-0.1-1.1s-0.2-0.8-0.3-1.1c-0.1-0.3-0.3-0.7-0.4-1c-0.2-0.3-0.4-0.6-0.6-0.8 c-0.2-0.2-0.5-0.4-0.9-0.6c-0.3-0.1-0.7-0.2-1.2-0.2c-0.1 0-0.2 0.1-0.4 0.2c-0.2 0.1-0.5 0.3-0.8 0.5c-0.3 0.2-0.7 0.3-1.1 0.5 C8.9 8.7 8.5 8.8 8 8.8c-0.5 0-0.9-0.1-1.4-0.2C6.2 8.4 5.8 8.2 5.5 8.1C5.2 7.9 5 7.7 4.7 7.6C4.5 7.4 4.4 7.3 4.3 7.3 c-0.4 0-0.8 0.1-1.2 0.2C2.8 7.7 2.5 7.9 2.3 8.1C2 8.3 1.8 8.6 1.6 8.9c-0.2 0.3-0.3 0.7-0.4 1S1 10.7 0.9 11.1 c-0.1 0.4-0.1 0.8-0.1 1.1s0 0.7 0 1.1c0 0.8 0.3 1.5 0.8 2c0.5 0.5 1.2 0.7 2 0.7h9c0.8 0 1.5-0.2 2-0.7c0.5-0.5 0.8-1.1 0.8-2 C15.3 12.9 15.3 12.5 15.2 12.2L15.2 12.2z M15.2 12.2"/>
	</symbol>
	<symbol class="i" id="smile" width="100%" height="100%" viewBox="0 0 16 16">
		<path d="M14.8 4.1c-0.7-1.2-1.7-2.2-2.9-2.9c-1.2-0.7-2.5-1.1-4-1.1c-1.4 0-2.8 0.4-4 1.1C2.8 1.9 1.9 2.9 1.2 4.1 C0.5 5.3 0.1 6.6 0.1 8c0 1.4 0.4 2.8 1.1 4c0.7 1.2 1.7 2.2 2.9 2.9c1.2 0.7 2.5 1.1 4 1.1c1.4 0 2.8-0.4 4-1.1 c1.2-0.7 2.2-1.7 2.9-2.9c0.7-1.2 1.1-2.5 1.1-4C15.9 6.6 15.5 5.3 14.8 4.1L14.8 4.1z M14.1 10.6c-0.4 0.8-0.8 1.5-1.4 2.1 c-0.6 0.6-1.3 1.1-2.1 1.4c-0.8 0.3-1.7 0.5-2.6 0.5c-0.9 0-1.7-0.2-2.6-0.5c-0.8-0.3-1.5-0.8-2.1-1.4c-0.6-0.6-1.1-1.3-1.4-2.1 C1.6 9.8 1.4 8.9 1.4 8c0-0.9 0.2-1.7 0.5-2.6C2.3 4.7 2.8 4 3.4 3.4C3.9 2.8 4.6 2.3 5.5 2C6.3 1.6 7.1 1.5 8 1.5 c0.9 0 1.7 0.2 2.6 0.5c0.8 0.3 1.5 0.8 2.1 1.4c0.6 0.6 1.1 1.3 1.4 2.1c0.3 0.8 0.5 1.7 0.5 2.6S14.4 9.8 14.1 10.6L14.1 10.6z M14.1 10.6"/>
		<path d="M11.3 9.1c-0.2-0.1-0.3 0-0.5 0c-0.2 0.1-0.3 0.2-0.3 0.4c-0.2 0.5-0.5 1-1 1.3c-0.5 0.3-1 0.5-1.6 0.5 c-0.6 0-1.1-0.2-1.6-0.5C6 10.5 5.7 10 5.5 9.5C5.4 9.3 5.3 9.2 5.2 9.1C5 9 4.8 9 4.7 9.1C4.5 9.1 4.4 9.2 4.3 9.4 c-0.1 0.2-0.1 0.3 0 0.5c0.3 0.8 0.7 1.5 1.4 2c0.7 0.5 1.5 0.8 2.3 0.8c0.9 0 1.7-0.3 2.3-0.8c0.7-0.5 1.2-1.2 1.4-2 c0.1-0.2 0-0.3 0-0.5C11.6 9.2 11.5 9.1 11.3 9.1L11.3 9.1z M11.3 9.1"/>
		<path d="M5.4 6.7c0.4 0 0.7-0.1 0.9-0.4c0.3-0.3 0.4-0.6 0.4-0.9c0-0.4-0.1-0.7-0.4-0.9C6 4.2 5.7 4.1 5.4 4.1 C5 4.1 4.7 4.2 4.4 4.5S4.1 5 4.1 5.4c0 0.4 0.1 0.7 0.4 0.9C4.7 6.6 5 6.7 5.4 6.7L5.4 6.7z M5.4 6.7"/>
		<path d="M10.6 4.1c-0.4 0-0.7 0.1-0.9 0.4C9.4 4.7 9.3 5 9.3 5.4c0 0.4 0.1 0.7 0.4 0.9c0.3 0.3 0.6 0.4 0.9 0.4s0.7-0.1 0.9-0.4 C11.8 6.1 12 5.8 12 5.4c0-0.4-0.1-0.7-0.4-0.9C11.3 4.2 11 4.1 10.6 4.1L10.6 4.1z M10.6 4.1"/>
	</symbol>
	<symbol class="i" id="monitor" width="100%" height="100%" viewBox="0 0 16 16">
		<path d="M15.5 2.3c-0.3-0.3-0.6-0.4-0.9-0.4H1.4C1.1 1.9 0.7 2 0.5 2.3C0.2 2.6 0.1 2.9 0.1 3.2v8.9c0 0.4 0.1 0.7 0.4 0.9 c0.3 0.3 0.6 0.4 0.9 0.4h4.5c0 0.2 0 0.4-0.1 0.6c-0.1 0.2-0.2 0.4-0.3 0.6C5.4 14.9 5.4 15 5.4 15c0 0.1 0.1 0.3 0.2 0.4 c0.1 0.1 0.2 0.2 0.4 0.2h4.2c0.1 0 0.3-0.1 0.4-0.2c0.1-0.1 0.2-0.2 0.2-0.4c0-0.1 0-0.2-0.1-0.4c-0.1-0.2-0.2-0.4-0.3-0.6 c-0.1-0.2-0.1-0.4-0.1-0.6h4.5c0.4 0 0.7-0.1 0.9-0.4c0.3-0.3 0.4-0.6 0.4-0.9V3.2C15.9 2.9 15.7 2.6 15.5 2.3L15.5 2.3z M14.8 10.1c0 0.1 0 0.1-0.1 0.2c-0.1 0.1-0.1 0.1-0.2 0.1H1.4c-0.1 0-0.1 0-0.2-0.1c-0.1-0.1-0.1-0.1-0.1-0.2V3.2 c0-0.1 0-0.1 0.1-0.2C1.3 3 1.3 3 1.4 3h13.1c0.1 0 0.1 0 0.2 0.1c0.1 0.1 0.1 0.1 0.1 0.2V10.1z M14.8 10.1"/>
	</symbol>
	<symbol class="i" id="pin" width="100%" height="100%" viewBox="0 0 16 16">
		<path d="M12.6 8.3c-0.5-0.6-1.1-0.9-1.7-0.9V2.5c0.3 0 0.6-0.1 0.9-0.4c0.2-0.2 0.4-0.5 0.4-0.9c0-0.3-0.1-0.6-0.4-0.9 c-0.2-0.2-0.5-0.4-0.9-0.4H4.8C4.5 0.1 4.2 0.2 4 0.4C3.7 0.7 3.6 1 3.6 1.3c0 0.3 0.1 0.6 0.4 0.9c0.2 0.2 0.5 0.4 0.9 0.4v4.9 c-0.6 0-1.2 0.3-1.7 0.9c-0.5 0.6-0.7 1.3-0.7 2.1c0 0.2 0.1 0.3 0.2 0.4C2.7 11 2.8 11 3 11h3.8l0.7 4.6c0 0.2 0.1 0.3 0.3 0.3h0 c0.1 0 0.1 0 0.2-0.1c0.1-0.1 0.1-0.1 0.1-0.2L8.7 11h4.1c0.2 0 0.3-0.1 0.4-0.2c0.1-0.1 0.2-0.3 0.2-0.4 C13.4 9.6 13.1 8.9 12.6 8.3L12.6 8.3z M7 7.1c0 0.1 0 0.2-0.1 0.2C6.8 7.4 6.7 7.4 6.7 7.4c-0.1 0-0.2 0-0.2-0.1S6.4 7.2 6.4 7.1 V2.8c0-0.1 0-0.2 0.1-0.2c0.1-0.1 0.1-0.1 0.2-0.1c0.1 0 0.2 0 0.2 0.1C6.9 2.7 7 2.7 7 2.8V7.1z M7 7.1"/>
	</symbol>
	<symbol class="i" id="openFolder" width="100%" height="100%" viewBox="0 0 16 16">
		<path d="M3.9 6.5c-0.1 0-0.1 0-0.1 0.1l-3 7.5v0.3c0 0.2 0 0.3 0.1 0.3h11.7c0.3 0 0.6-0.2 0.6-0.5l2.7-7.4V6.5H3.9z M3.9 6.5"/>
		<path d="M3.5 5.9h10.8V4.3c0-0.4-0.3-0.7-0.7-0.7H7.1L5.8 1.8H0.9c-0.4 0-0.7 0.3-0.7 0.7v10.9l2.7-7C3 6.2 3.2 5.9 3.5 5.9 L3.5 5.9z M3.5 5.9"/>
	</symbol>
	<symbol class="i" id="warning" width="100%" height="100%" viewBox="0 0 60 60">
		<path d="M32.9 10.3l19.7 36.2c0.6 1.1 0.6 2.2-0.1 3.2c-0.3 0.5-0.7 0.9-1.2 1.2c-0.5 0.3-1.1 0.4-1.6 0.4H10.3 c-0.6 0-1.1-0.1-1.6-0.4c-0.5-0.3-0.9-0.7-1.2-1.2c-0.6-1.1-0.7-2.2-0.1-3.2l19.7-36.2c0.3-0.5 0.7-1 1.2-1.3 c0.5-0.3 1.1-0.5 1.7-0.5c0.6 0 1.2 0.2 1.7 0.5C32.2 9.4 32.6 9.8 32.9 10.3z M33.2 34.3l0.5-11.8c0-0.2-0.1-0.4-0.3-0.5 c-0.2-0.2-0.4-0.3-0.6-0.3h-5.7c-0.2 0-0.4 0.1-0.6 0.3c-0.2 0.1-0.3 0.3-0.3 0.5l0.4 11.7c0 0.2 0.1 0.3 0.3 0.4 c0.2 0.1 0.4 0.2 0.6 0.2h4.8c0.2 0 0.4-0.1 0.6-0.2C33.1 34.7 33.2 34.5 33.2 34.3z M33.3 44v-4.9c0-0.2-0.1-0.4-0.2-0.6 c-0.2-0.2-0.4-0.2-0.6-0.2h-4.9c-0.2 0-0.4 0.1-0.6 0.2c-0.2 0.2-0.2 0.4-0.2 0.6V44c0 0.2 0.1 0.4 0.2 0.6 c0.2 0.2 0.4 0.2 0.6 0.2h4.9c0.2 0 0.4-0.1 0.6-0.2C33.2 44.4 33.3 44.2 33.3 44z"/>
	</symbol>
	<symbol class="i" id="subscribe" width="100%" height="100%" viewBox="0 0 16 16">
		<path d="M13.3 13.5c0 0.3-0.3 0.6-0.6 0.6H0.6c-0.3 0-0.6-0.3-0.6-0.6V9.4c0-0.3 0.1-0.8 0.3-1.1l2-4.8C2.3 3.3 2.8 3 3 3h7.3 c0.3 0 0.7 0.3 0.8 0.5l2 4.8c0.1 0.3 0.3 0.8 0.3 1.1L13.3 13.5L13.3 13.5z M11.6 9.1C11.6 9 11.6 9 11.6 9.1L9.7 4.7H3.6L1.8 9 c0 0.1 0 0.1-0.1 0.1h2.8l0.8 1.7h2.8l0.8-1.7H11.6z"/>
	</symbol>
	<symbol class="i" id="bigCheck" width="100%" height="100%" viewBox="-94 320 154 154">
		<path d="M33.1 376.2c-1.9-4.9-5.7-4.1-9.9-3.3c-2.5 0.5-13.5 3.8-31 22.2c-7.3 7.7-12 13.8-15.2 18.4 c-1.9-2.4-4.1-4.9-6.4-7.2c-7.1-7.1-15.1-12-15.4-12.2c-3.3-2-7.7-1-9.7 2.3c-2 3.3-1 7.7 2.3 9.7c0.1 0 6.9 4.3 12.8 10.2 c6 6 11.5 14.1 11.5 14.2c1.3 2 3.6 3.2 5.9 3.2c0.4 0 0.8 0 1.2-0.1c2.8-0.5 5-2.5 5.7-5.3c0-0.1 2.8-7.8 17.7-23.5 c11.9-12.6 19.9-16.6 22.7-17.7c0 0 0 0 0.1 0c0 0 0.1 0 0.3-0.1c0.5-0.2 0.7-0.2 0.7-0.2c-0.1 0-0.2 0-0.2 0l0 0 c1.3-0.6 3.7-1.6 3.7-1.6C33.3 383.7 34.5 379.8 33.1 376.2z"/>
	</symbol>
	<symbol class="i" id="affirmLogo" width="100%" height="100%" viewBox="0 0 100 166.04">
		<path d="M122.43,164.09l0-105.36a17.32,17.32,0,0,0-15.32-17c-5.73-.37-11.82,1.73-15.41,6.38L0,164.08H22.6c9,0,16.18-4.69,21.61-11.7L95,88.15v75.94h27.45Z" transform="translate(0 1.92)"/>
	</symbol>
	<symbol class="i" id="affirmLogoFull" width="100%" height="100%" viewBox="0 0 571.64 166.04">
		<path d="M298.39-1.92A17.57,17.57,0,1,0,316,15.65,17.59,17.59,0,0,0,298.39-1.92Z" transform="translate(0 1.92)"/>
		<rect x="283.3" y="46.68" width="29.99" height="119.31"/>
		<path d="M403.47,41.69c-15,0-32.25,10.8-37.93,24.34V44.76H337.09V164.08h30V108.67c0-23.45,9-36.54,28.61-36.91l16.75-29.38A64.17,64.17,0,0,0,403.47,41.69Z" transform="translate(0 1.92)"/>
		<path d="M524,41.77c-12.87,0-24.41,4.84-32.5,13.62l-0.42.45-0.41-.45c-8-8.78-19.48-13.62-32.36-13.62-27.58,0-47.6,20.11-47.6,47.81v74.53h29.52V88.94c0-11.63,7.1-19.14,18.08-19.14s18.09,7.51,18.09,19.14v75.17H506V88.94c0-11.63,7.1-19.14,18.09-19.14s18.09,7.51,18.09,19.14v75.17h29.51V89.58C571.64,61.88,551.62,41.77,524,41.77Z" transform="translate(0 1.92)"/>
		<path d="M247,33.77c0-3.94.53-8.65,3.9-11.24,3.69-2.87,9.09-2.34,13.46-2.12l5.82-21.72-3.11-.16c-12.52-.67-25.69-1.6-36.67,5.66-9.31,6.15-13.45,16.74-13.45,27.61v13H181.18v-11c0-3.92.52-8.58,3.82-11.2,3.69-2.93,9.16-2.38,13.53-2.16l5.82-21.72-3.11-.16c-12.62-.68-25.92-1.6-36.91,5.86-9.12,6.18-13.16,16.68-13.16,27.42v13H137.65V66.45h13.53v97.63h30V66.45h35.76v97.63h30V66.45h20.77V44.76H247v-11Z" transform="translate(0 1.92)"/>
		<path d="M122.43,164.09l0-105.36a17.32,17.32,0,0,0-15.32-17c-5.73-.37-11.82,1.73-15.41,6.38L0,164.08H22.6c9,0,16.18-4.69,21.61-11.7L95,88.15v75.94h27.45Z" transform="translate(0 1.92)"/>
	</symbol>
	<symbol class="i" id="dollarBill" width="100%" height="100%" viewBox="0 0 216 146">
		<path d="M184.666,22.405c-1.031-1.032-2.254-1.548-3.666-1.548H35c-1.412,0-2.635,0.516-3.667,1.548 c-1.031,1.032-1.548,2.254-1.548,3.666v93.856c0,1.412,0.517,2.635,1.548,3.666c1.032,1.032,2.255,1.549,3.667,1.549h146 c1.412,0,2.635-0.517,3.666-1.549c1.032-1.031,1.549-2.254,1.549-3.666V26.071C186.215,24.659,185.698,23.438,184.666,22.405z M175.785,93.857c-5.758,0-10.672,2.037-14.747,6.109c-4.074,4.073-6.11,8.989-6.11,14.746H61.071 c0-5.757-2.037-10.673-6.11-14.746c-4.074-4.074-8.989-6.109-14.747-6.109V52.142c5.758,0,10.673-2.037,14.747-6.11 c4.073-4.073,6.11-8.989,6.11-14.747h93.859c0,5.758,2.035,10.674,6.109,14.747c4.074,4.073,8.988,6.11,14.746,6.11V93.857z"/>
		<path d="M127.512,50.514c-2.091-3.368-4.848-6.111-8.27-8.229s-7.169-3.177-11.243-3.177s-7.821,1.059-11.243,3.177 c-3.422,2.118-6.179,4.861-8.27,8.229c-2.092,3.367-3.707,7.006-4.848,10.917c-1.141,3.911-1.711,7.768-1.711,11.569 s0.57,7.658,1.711,11.568c1.141,3.91,2.756,7.551,4.848,10.918c2.091,3.369,4.848,6.11,8.27,8.229 c3.422,2.119,7.169,3.178,11.243,3.178s7.821-1.059,11.243-3.178s6.179-4.861,8.27-8.229c2.092-3.367,3.707-7.008,4.848-10.918 c1.142-3.91,1.711-7.767,1.711-11.568s-0.569-7.658-1.711-11.569C131.219,57.52,129.604,53.881,127.512,50.514z M123.643,93.857 H92.356v-7.822h10.427V62.571h-0.163c-0.706,1.086-2.199,2.635-4.48,4.644l-6.273-6.518l12.058-11.162h9.289v36.5h10.429V93.857z"/>
	</symbol>
	<symbol class="i" id="question" width="100%" height="100%" viewBox="0 0 10 10">
		<path d="m9.234 2.538c0.411 0.739 0.657 1.56 0.657 2.463 0 0.903-0.246 1.724-0.657 2.463 -0.41 0.739-1.067 1.314-1.806 1.806 -0.739 0.411-1.56 0.657-2.463 0.657 -0.903 0-1.724-0.246-2.463-0.657 -0.739-0.41-1.314-1.067-1.806-1.806 -0.41-0.739-0.657-1.56-0.657-2.463 0-0.903 0.246-1.724 0.657-2.463 0.411-0.739 1.067-1.314 1.806-1.806 0.739-0.41 1.56-0.657 2.463-0.657 0.903 0 1.724 0.246 2.463 0.657 0.821 0.411 1.396 1.067 1.806 1.806zm-2.627-1.314c-0.493-0.246-1.067-0.328-1.56-0.328 -0.575 0-1.067 0.082-1.56 0.328s-1.067 0.493-1.396 0.903 -0.657 0.821-0.903 1.314 -0.328 1.067-0.328 1.56c0 0.575 0.082 1.067 0.328 1.56s0.493 0.903 0.903 1.314 0.821 0.657 1.314 0.903 1.067 0.328 1.56 0.328c0.575 0 1.067-0.082 1.56-0.328s0.903-0.493 1.314-0.903 0.657-0.821 0.903-1.314 0.328-1.067 0.328-1.56c0-0.575-0.082-1.067-0.328-1.56s-0.493-0.903-0.903-1.314 -0.739-0.657-1.232-0.903zm0.739 2.545c0 0.246 0 0.411-0.082 0.575 -0.082 0.164-0.164 0.328-0.328 0.411 -0.164 0.164-0.246 0.246-0.328 0.246 -0.082 0.082-0.246 0.164-0.41 0.246 -0.164 0.082-0.246 0.164-0.328 0.164 -0.082 0.082-0.082 0.082-0.164 0.164 0 0.082 0 0.164 0 0.246l0 0.164c0 0.082 0 0.082-0.082 0.164s-0.082 0.082-0.164 0.082l-0.985 0c-0.082 0-0.082 0-0.164-0.082s-0.082-0.082-0.082-0.164l0-0.41c0-0.164 0-0.328 0.082-0.41 0.082-0.164 0.082-0.246 0.164-0.328s0.164-0.164 0.246-0.246c0.082-0.082 0.164-0.164 0.246-0.164 0.082 0 0.164-0.082 0.246-0.164 0.246-0.082 0.411-0.164 0.493-0.246 0.082-0.082 0.164-0.164 0.164-0.328 0-0.164-0.082-0.328-0.246-0.493 -0.164-0.164-0.41-0.164-0.575-0.164 -0.246 0-0.41 0.082-0.575 0.164 -0.164 0.082-0.328 0.246-0.493 0.493 -0.082 0.164-0.164 0.164-0.246 0.164 -0.082 0-0.082 0-0.082 0l-0.739-0.493c-0.082 0-0.082-0.082-0.082-0.164 0-0.082 0-0.082 0-0.164 0.493-0.821 1.232-1.232 2.217-1.232 0.575 0 1.067 0.164 1.56 0.575 0.493 0.411 0.739 0.821 0.739 1.396zm-1.642 3.202l0 0.985c0 0.082 0 0.082-0.082 0.164s-0.082 0.082-0.164 0.082l-0.985 0c-0.082 0-0.082 0-0.164-0.082s-0.082-0.082-0.082-0.164l0-0.985c0-0.082 0-0.082 0.082-0.164s0.082-0.082 0.164-0.082l0.985 0c0.082 0 0.082 0 0.164 0.082s0.082 0.082 0.082 0.164z"/>
	</symbol>
</svg>
